<?xml version="1.0" encoding="UTF-8" standalone="no"?>
<svg
   width="757.56195"
   height="516.47638"
   version="1.1"
   id="social-embed"
   sodipodi:docname="social-embed.svg"
   inkscape:version="1.4 (86a8ad7, 2024-10-11)"
   xmlns:inkscape="http://www.inkscape.org/namespaces/inkscape"
   xmlns:sodipodi="http://sodipodi.sourceforge.net/DTD/sodipodi-0.dtd"
   xmlns="http://www.w3.org/2000/svg"
   xmlns:svg="http://www.w3.org/2000/svg">
  <sodipodi:namedview
     id="social-embednamedview1"
     pagecolor="#ffffff"
     bordercolor="#000000"
     borderopacity="0.25"
     inkscape:showpageshadow="2"
     inkscape:pageopacity="0.0"
     inkscape:pagecheckerboard="0"
     inkscape:deskcolor="#d1d1d1"
     inkscape:zoom="0.84050967"
     inkscape:cx="158.8322"
     inkscape:cy="143.96027"
     inkscape:window-width="2237"
     inkscape:window-height="1624"
     inkscape:window-x="225"
     inkscape:window-y="285"
     inkscape:window-maximized="0"
     inkscape:current-layer="social-embed-logo" />
  <defs
     id="social-embed-defs">
    <linearGradient
       id="social-embed-gradient_0"
       gradientUnits="userSpaceOnUse"
       x1="424.021"
       y1="338.90811"
       x2="89.083527"
       y2="166.87514">
      <stop
         offset="0"
         stop-color="#434575"
         id="social-embed-stop1" />
      <stop
         offset="1"
         stop-color="#8561AD"
         id="social-embed-stop2" />
    </linearGradient>
  </defs>
  <g
     id="social-embed-logo"
     inkscape:label="social-embed"
     transform="translate(-191.29977,-304.82658)">
    <path
       fill="#fe7943"
       transform="scale(2.22261)"
       d="m 285.338,190.097 c 9.385,-0.685 14.03,6.619 20.01,12.509 13.379,13.179 29.243,27.783 41.535,41.604 5.133,5.771 5.445,14.123 0.322,20.186 -8.416,9.962 -19.528,20.442 -28.719,29.793 l -12.644,13.035 c -3.534,3.674 -7.245,8.581 -12.02,10.696 -13.323,4.901 -27.399,-8.956 -19.393,-21.919 2.921,-4.73 8.606,-9.472 12.606,-13.498 8.462,-8.518 19.735,-19.343 27.343,-28.516 l 0.238,-0.29 c -3.069,-2.794 -5.928,-5.869 -8.875,-8.792 l -15.079,-14.897 c -4.494,-4.505 -12.856,-12.185 -16.257,-17.169 -6.11,-8.952 0.341,-21.399 10.933,-22.742 z"
       id="social-embed-logo-container-equal-sign-arrow"
       inkscape:label="arrow" />
    <path
       fill="url(#social-embed-gradient_0)"
       transform="scale(2.22261)"
       d="m 128.935,137.327 c 19.204,-0.257 38.448,0 57.657,0 l 171.41,-0.001 c 9.729,-0.001 21.914,-0.658 31.391,0.559 20.332,2.611 34.975,20.108 36.987,40.052 0.929,9.21 0.363,20.374 0.358,29.843 v 98.755 c 0.004,17.591 1.701,32.108 -10.33,46.685 -8.176,9.907 -19.256,14.882 -31.846,16.129 l -228.827,0.009 c -10.264,0 -21.132,0.71 -31.304,-0.826 C 104.6,365.539 88.1062,347.757 86.4968,327.779 85.7079,317.987 86.254,307.514 86.2537,297.638 L 86.238,199.763 c -0.0114,-17.149 -1.6327,-32.222 10.3563,-46.296 8.4687,-9.941 19.4687,-15.097 32.3407,-16.14 z m 171.075,30.161 -151.9,-0.011 c -32.763,-0.014 -31.809,0.114 -31.723,29.154 l -0.013,96.168 c 0,10.215 -0.345,20.542 0.025,30.744 0.54,14.925 11.798,15.436 23.468,15.307 l 71.508,-0.028 155.387,0.012 c 10.831,0.009 26.523,2.798 28.41,-12.677 0.661,-5.428 0.076,-11.386 0.065,-16.864 l 0.016,-95.713 c 0.005,-10.658 0.341,-21.414 -10e-4,-32.057 -0.447,-13.873 -11.09,-14.04 -22.163,-14.042 z"
       id="social-embed-logo-container"
       inkscape:label="container"
       style="fill:url(#social-embed-gradient_0)" />
    <g
       id="social-embed-logo-equal-sign"
       inkscape:label="equal sign">
      <path
         fill="#fe7943"
         transform="scale(2.22261)"
         d="m 220.128,204.729 3.145,-0.083 c 16.278,-0.302 21.789,17.127 12.288,26.388 -6.797,6.625 -16.648,4.863 -25.277,4.865 l -30.846,-0.007 c -17.307,0.552 -25.57,-16.252 -14.606,-27.061 6.146,-6.06 14.769,-4.12 22.665,-4.118 z"
         id="social-embed-logo-container-equal-sign-top" />
      <path
         fill="#fe7943"
         transform="scale(2.22261)"
         d="m 175.26,270.528 c 11.164,-0.121 41.738,-1.513 51.743,0.312 17.816,3.249 16.372,29.927 -1.94,30.909 l -35.731,-0.008 c -4.931,0.01 -12.134,0.602 -16.785,-0.174 -15.915,-2.659 -17.637,-28.397 2.713,-31.039 z"
         id="social-embed-logo-container-equal-sign-bottom" />
    </g>
  </g>
</svg>
