<?xml version="1.0" encoding="utf-8" ?>
<svg xmlns="http://www.w3.org/2000/svg" xmlns:xlink="http://www.w3.org/1999/xlink" width="951" height="621">
	<path fill="#020202" d="M679.372 549.058L680.359 549.588L680.215 550.811C679.988 552.432 679.692 553.975 680.704 555.368C681.528 556.503 683.478 557.552 683.788 558.882L684.054 560.058L683.009 560.623C680.19 558.214 678.561 555.158 675.985 552.685C677.386 551.625 678.504 550.609 679.372 549.058Z"/>
	<path fill="#3B3839" d="M882.603 263.201C883.313 263.529 884.013 263.684 884.445 264.349C884.127 267.181 880.894 269.881 878.746 271.611C877.927 272.271 877.197 272.771 876.21 273.163L874.754 273.455C874.994 272.462 874.959 272.261 874.681 271.271C877.145 269.987 881.497 265.733 882.603 263.201Z"/>
	<path fill="#2F2D2E" d="M686.572 430.928C693.824 430.468 701.646 430.63 708.891 431.126C710 431.237 711.597 431.098 712.395 431.871L712.079 432.791C704.562 433.627 696.176 433.077 688.622 432.51C689.399 432.429 690.035 432.067 690.727 431.73L690.467 431.306L686.572 430.928Z"/>
	<path fill="#181617" d="M222.433 555.313C225.523 558.543 228.503 562.603 229.393 567.069L228.975 568.171L227.719 568.176L227.456 566.413C226.668 565.662 226.188 564.842 225.008 564.887C223.35 564.951 221.826 566.102 220.178 566.301C219.66 565.562 218.972 565.035 218.297 564.443C219.832 564.285 222.297 564.177 223.535 563.241C224.297 562.664 224.218 562.322 224.33 561.439C223.779 559.414 222.262 557.982 220.902 556.453L222.433 555.313Z"/>
	<path fill="#3B3839" d="M725.536 420.355L726.539 422.138L726.949 421.814L726.999 420.891C727.849 422.463 728.527 427.058 727.932 428.776C727.433 430.218 726.331 431.193 724.954 431.785C721.215 433.393 716.074 432.811 712.079 432.791L712.395 431.871C711.597 431.098 710 431.237 708.891 431.126C712.973 431.089 717.847 431.528 721.784 430.445C723.444 429.988 724.965 429.142 725.724 427.525C726.505 425.861 726.147 422.068 725.536 420.355Z"/>
	<path fill="#020202" fill-opacity="0.98823529" d="M767.384 155.991C767.66 155.644 767.927 155.294 768.169 154.923C770.231 151.769 772.258 143.552 771.464 139.768C772.366 140.676 772.995 140.971 772.895 142.348C772.867 142.741 772.744 143.155 772.652 143.534C774.602 148.567 771.063 151.049 770.737 155.736C770.566 158.201 772.361 160.706 771.751 163.005L771.321 163.692L769.942 163.422C770.039 163.077 770.075 163.023 770.069 162.61C770.042 160.663 768.684 157.392 767.384 155.991Z"/>
	<path fill="#181617" d="M880.18 230.431C881.004 229.737 881.086 229.534 882.199 229.472C886.943 231.654 892.22 237.985 894.048 242.851C894.992 245.363 895.166 247.908 894.024 250.411C893.573 251.399 893.066 251.952 892.211 252.6C891.916 252.7 891.536 252.666 891.225 252.677L890.429 251.282C890.736 250.995 890.733 251.019 891.03 250.619C892.142 249.122 892.65 246.826 892.335 245.003C891.325 239.156 884.767 233.744 880.18 230.431Z"/>
	<path fill="#2F2D2E" d="M734.102 271.452C740.514 271.324 752.82 257.703 757.665 253.102L758.592 255.007C755.338 259.474 741.617 272.417 736.411 273.333C735.65 273.467 734.782 273.342 734.034 273.179C734.663 272.862 734.878 272.677 735.224 272.062L734.102 271.452Z"/>
	<path fill="#3B3839" d="M825.167 535.538C825.165 535.699 825.166 535.859 825.16 536.02C825.136 536.723 824.863 537.182 824.54 537.792L825.137 538.356C822.885 543.164 802.009 548.149 800.27 555.585C800.059 555.035 799.83 554.492 799.605 553.948L798.162 553.661C798.522 553.206 798.894 552.76 799.249 552.303C805.349 544.45 817.21 541.511 825.167 535.538Z"/>
	<path fill="#181617" d="M183.068 301.823L184.52 303.276C181.077 307.024 178.74 309.115 179.001 314.563C179.312 321.072 182.633 336.323 180.838 341.643C180.242 342.279 179.719 342.797 178.97 343.263L178.361 341.237C178.586 340.954 178.655 340.91 178.777 340.512C179.509 338.129 177.001 314.379 175.905 312.729L174.745 313.024C173.997 312.731 173.394 312.293 172.727 311.852C176.555 309.019 179.791 305.269 183.068 301.823Z"/>
	<path fill="#020202" d="M179.11 536.022C179.292 535.697 179.458 535.422 179.702 535.139C181.815 532.676 188.389 530.162 191.66 529.886C190.562 531.578 189.373 533.013 189.798 535.143C190.394 538.129 193.406 540.394 195.864 541.856C204.035 546.711 215.584 549.012 222.433 555.313L220.902 556.453C214.274 551.563 205.73 549.195 198.392 545.579C194.774 543.795 191.519 540.947 188.068 538.813C187.694 538.873 187.343 538.701 186.984 538.596L186.66 536.938C187.016 536.242 187.068 535.893 187.015 535.114L186.279 534.657C184.033 534.433 181.303 535.456 179.11 536.022Z"/>
	<path fill="#181617" d="M727.188 334.873C727.611 335.583 727.808 336.013 727.871 336.852C728.27 342.118 728.004 347.597 728.009 352.881L728.015 383.337C728.018 390.839 728.847 413.803 727.611 419.404C727.494 419.933 727.267 420.424 726.999 420.891L726.949 421.814L726.539 422.138L725.536 420.355C726.346 418.439 726.232 364.795 725.613 362.824L726.336 364.059L726.893 364.068C728.409 361.048 728.104 338.825 727.188 334.873Z"/>
	<path fill="#2F2D2E" d="M227.456 566.413L227.719 568.176L228.975 568.171C227.923 569.682 226.729 570.601 225.113 571.425C217.426 575.343 197.487 579.527 188.397 581.154C181.29 582.427 170.355 583.828 163.494 581.416C163.434 580.314 162.697 579.168 162.217 578.186C169.504 583.068 186.07 579.336 194.148 577.728C201.765 576.212 219.083 572.709 225.248 568.866C226.203 568.271 226.843 567.331 227.456 566.413Z"/>
	<path fill="#181617" d="M56.7774 255.731L58.292 257.04C50.7408 283.725 55.137 297.574 68.528 321.48Q71.8005 327.215 75.2974 332.817L73.6801 333.972Q69.1087 326.483 64.837 318.819C51.8017 295.195 49.2289 281.852 56.7774 255.731Z"/>
	<defs>
		<linearGradient id="gradient_0" gradientUnits="userSpaceOnUse" x1="708.14575" y1="576.80707" x2="733.14551" y2="542.5498">
			<stop offset="0" stop-color="#292727"/>
			<stop offset="1" stop-color="#434344"/>
		</linearGradient>
	</defs>
	<path fill="url(#gradient_0)" d="M742.881 551.177L744.152 550.722C744.37 551.418 744.499 552.098 744.629 552.813C745.705 555.538 744.186 560.435 743.968 563.427C743.783 565.979 744.652 568.557 744.493 571.114C744.436 572.026 744.273 572.939 743.895 573.778C743.122 575.492 741.362 576.653 739.627 577.227C727.509 581.236 694.322 566.52 683.318 560.785L683.009 560.623L684.054 560.058L683.788 558.882L684.308 559.055C695.804 562.951 728.611 579.849 739.326 574.852C740.272 574.41 741.13 573.638 741.536 572.657C741.773 572.087 741.768 571.395 741.652 570.799L742.768 569.862C742.933 568.716 742.928 568.781 742.267 567.826C741.199 567.232 740.425 566.984 739.198 566.903C739.082 566.895 738.965 566.89 738.849 566.884C739.72 566.416 740.493 565.978 741.206 565.28C741.768 564.729 741.711 564.755 741.71 563.967L740.713 563.448C742.207 560.682 743.18 554.326 742.881 551.177Z"/>
	<path fill="#2F2D2E" d="M112.101 173.767C112.656 173.97 113.234 174.12 113.709 174.476C112.703 178.847 111.682 183.195 110.446 187.507L118.39 187.23L118.825 188.952C103.106 190.433 93.8166 196.356 83.9151 208.341C72.622 222.009 63.4731 240.1 58.292 257.04L56.7774 255.731C59.1904 248.864 61.7736 242.154 64.9085 235.58C74.2539 215.98 86.4191 195.634 107.936 188.003Q109.914 180.854 112.101 173.767Z"/>
	<path fill="#020202" d="M150.51 196.568C171.466 208.449 183.296 234.836 189.409 257.019C192.986 269.998 195.867 284.943 188.897 297.349C187.771 299.354 186.153 301.657 184.52 303.276L183.068 301.823C184.248 300.585 185.227 299.178 186.16 297.748C192.743 287.651 191.785 276.14 189.345 264.934C183.78 239.379 172.272 212.831 149.509 198.253L150.51 196.568Z"/>
	<path fill="#3F3D40" d="M740.713 563.448L741.71 563.967C741.711 564.755 741.768 564.729 741.206 565.28C740.493 565.978 739.72 566.416 738.849 566.884C738.965 566.89 739.082 566.895 739.198 566.903C740.425 566.984 741.199 567.232 742.267 567.826C742.928 568.781 742.933 568.716 742.768 569.862L741.652 570.799C741.869 570.04 741.876 569.535 741.792 568.751C741.486 568.553 741.213 568.289 740.873 568.156C739.216 567.508 734.662 568.486 732.654 568.488C730.43 568.491 728.268 568.104 726.085 567.715C726.929 567.571 727.535 567.656 728.126 567.002L726.983 565.897C730.33 566.35 735.763 567.493 738.844 565.842C740.128 565.154 740.346 564.751 740.713 563.448Z"/>
	<path fill="#181617" d="M679.372 549.058C680.902 548.029 682.173 546.455 682.963 544.805C683.829 545.271 684.106 545.233 684.42 546.198C686.276 549.333 692.97 553.059 693.279 554.058C693.23 554.921 693.044 555.286 692.616 556.006C689.7 554.066 686.123 551.104 682.739 550.188C681.552 549.866 681.216 550.269 680.215 550.811L680.359 549.588L679.372 549.058Z"/>
	<path fill="#2F2D2E" d="M693.279 554.058C700.499 555.808 707.663 559.385 714.667 561.936C718.666 563.393 723.097 564.295 726.983 565.897L728.126 567.002C727.535 567.656 726.929 567.571 726.085 567.715C714.488 565.163 703.523 560.589 692.616 556.006C693.044 555.286 693.23 554.921 693.279 554.058Z"/>
	<path fill="#181617" d="M852.323 523.484C852.931 522.202 852.915 521.752 854.234 521.135C854.453 521.458 854.922 521.976 855.039 522.325C855.081 522.45 856.145 546.961 856.136 547.009C856.072 547.365 855.945 547.707 855.804 548.038L855.415 547.537C855.629 549.457 855.919 551.354 855.659 553.283C855.353 551.335 855.088 549.374 854.65 547.45L853.696 549.038C853.741 548.849 853.793 548.661 853.832 548.469C854.173 546.767 853.389 544.985 852.486 543.591C852.226 543.93 852.195 544.007 851.802 544.303C849.319 546.181 844.511 547.245 841.43 546.847C835.371 546.065 832.246 540.293 828.931 535.877C828.113 537.384 826.695 537.871 825.137 538.356L824.54 537.792C824.863 537.182 825.136 536.723 825.16 536.02C825.166 535.859 825.165 535.699 825.167 535.538C825.482 535.389 825.782 535.217 826.077 535.031C827.277 534.274 827.907 533.557 828.167 532.134C828.543 530.079 827.581 527.448 826.401 525.775C827.185 525.729 827.661 525.587 828.384 525.941C831.239 524.349 849.046 521.849 852.163 522.428L852.323 523.484Z"/>
	<path fill="#FDFDFD" d="M828.384 525.941C831.239 524.349 849.046 521.849 852.163 522.428L852.323 523.484C853.032 525.017 853.563 526.963 852.986 528.63C852.3 530.611 849.928 532.036 848.085 532.822C844.474 534.363 836.795 535.942 833.059 534.185C831.036 533.233 830.519 531.307 829.93 529.345C829.549 528.076 829.402 526.855 828.384 525.941Z"/>
	<path fill="#181617" d="M810.518 567.242C812.886 567.581 836.023 573.808 837.051 574.497C835.712 574.828 835.613 574.925 834.708 575.975C826.632 574.598 818.589 572.127 810.701 569.929C811.171 568.611 811.047 568.559 810.518 567.242Z"/>
	<path fill="#020202" d="M853.696 549.038L854.65 547.45C855.088 549.374 855.353 551.335 855.659 553.283C855.919 551.354 855.629 549.457 855.415 547.537L855.804 548.038C857.081 549.789 858.952 566.855 858.613 569.213C858.273 571.575 857.22 573.62 855.238 575.023C849.73 578.919 840.889 577.14 834.708 575.975C835.613 574.925 835.712 574.828 837.051 574.497C840.726 574.948 844.394 575.45 848.102 575.081C850.712 574.822 853.997 574 855.655 571.799C856.6 570.546 857.064 569.147 856.901 567.595C855.083 565.773 850.058 567.484 847.592 567.889C832.781 570.322 815.76 564.519 801.882 559.656C800.634 559.18 799.376 558.489 798.027 558.781C797.384 559.748 797.407 559.953 797.366 561.067C798.355 563.296 800.886 564.247 803.038 565.075C805.397 565.983 808.309 566.157 810.518 567.242C811.047 568.559 811.171 568.611 810.701 569.929Q807.822 569.072 804.968 568.134C801.853 567.106 796.661 565.506 795.22 562.25C793.956 559.395 797.008 556.697 797.958 554.214C798.028 554.03 798.094 553.845 798.162 553.661L799.605 553.948C799.83 554.492 800.059 555.035 800.27 555.585C801.227 556.219 802.371 556.731 802.892 557.76C806.589 558.612 810.176 560.316 813.84 561.395C822.798 564.031 842.464 568.892 851.378 565.42C853.055 564.767 854.478 563.722 855.155 562.002C856.403 558.834 855.016 552.082 853.696 549.038Z"/>
	<path fill="#020202" d="M105.808 539.846C116.533 545.154 135.998 554.087 139.919 566.378C140.21 567.291 140.043 567.602 139.806 568.496C134.036 575.477 105.378 578.248 95.4892 579.201C88.5114 579.873 77.9186 580.835 72.1617 576.112C70.9877 575.149 69.9551 573.817 69.8831 572.235C69.8538 571.591 69.9587 570.928 70.0567 570.293L72.019 571.572C72.1218 572.578 72.0735 573.153 72.7598 573.954C74.9938 576.564 80.7346 577.321 83.9036 577.595C91.0934 578.216 132.158 573.065 136.373 569.107C137.363 568.178 137.881 567.473 137.896 566.136C136.604 565.209 134.5 565.33 132.928 565.423C117.352 566.342 101.631 571.705 85.9439 571.171C81.3061 571.013 77.2685 569.841 72.9745 568.226L72.7445 567.604C72.9334 566.697 72.867 565.921 73.6185 565.339C73.7365 565.457 73.844 565.587 73.9724 565.694C82.9868 573.216 124.183 565.105 135.929 562.844C127.12 552.521 116.192 547.457 104.312 541.413C104.719 540.806 105.277 540.34 105.808 539.846Z"/>
	<path fill="#020202" d="M226.338 429.499L228.932 429.287C230.49 430.139 231.931 430.732 233.716 430.887C244.403 431.816 258.855 430.981 269.973 430.959L343.84 430.764L578.606 430.842L650.746 430.871C662.559 430.867 674.806 430.201 686.572 430.928L690.467 431.306L690.727 431.73C690.035 432.067 689.399 432.429 688.622 432.51C681.712 433.035 674.498 432.626 667.549 432.627L625.832 432.637L487 432.537L314.511 432.57C298.805 432.575 283.051 432.463 267.351 432.65C257.879 432.762 248.514 433.423 239.03 432.992C234.215 432.773 229.825 433.314 226.338 429.499Z"/>
	<path fill="#2F2D2E" d="M720.207 530.868L721.504 531.215C721.568 531.807 721.513 531.824 721.893 532.338C717.401 539.459 690.898 539.942 684.42 546.198C684.106 545.233 683.829 545.271 682.963 544.805C691.557 537.22 709.288 537.41 720.207 530.868Z"/>
	<path fill="#181617" d="M74.9835 535.284C79.6767 534.548 84.1216 535.315 88.8041 535.185C92.1565 535.093 95.4205 534.25 98.7436 534.092C100.188 534.024 101.17 534.115 102.265 535.086L101.454 536.066C102.23 537.905 104.152 538.819 105.808 539.846C105.277 540.34 104.719 540.806 104.312 541.413L100.215 539.752C98.7382 543.707 97.4178 547.013 93.3652 548.902C88.5143 551.164 81.617 549.829 76.6394 548.447C75.7852 553.743 75.564 560.388 73.6185 565.339C72.867 565.921 72.9334 566.697 72.7445 567.604L72.9745 568.226C72.6411 569.335 72.2798 570.444 72.019 571.572L70.0567 570.293C70.755 568.685 71.3123 566.956 71.7417 565.255C73.016 560.208 77.2704 539.176 74.9835 535.284ZM96.0553 536.204C92.4607 536.367 82.148 535.835 79.4651 537.88C80.0319 538.932 80.6613 539.025 81.7982 539.383C81.9648 539.435 82.1355 539.474 82.3041 539.519C87.3213 540.343 93.5128 540.516 97.8993 537.458C98.3247 537.162 98.3224 536.88 98.4974 536.408C97.5864 535.981 97.0094 536.073 96.0553 536.204Z"/>
	<path fill="#020202" d="M162.118 552.853L164.198 553.353C162.917 558.884 161.846 564.84 161.332 570.498C180.577 574.08 199.628 568.701 218.297 564.443C218.972 565.035 219.66 565.562 220.178 566.301C208.893 569.636 193.914 572.968 182.238 573.567C176.031 573.885 169.674 572.809 163.53 573.381C162.22 573.503 161.286 573.61 160.598 574.779C160.846 576.194 161.416 577.03 162.217 578.186C162.697 579.168 163.434 580.314 163.494 581.416C162.071 580.79 160.844 580.224 159.951 578.87C156.639 573.846 160.91 558.619 162.118 552.853Z"/>
	<path fill="#181617" d="M179.11 536.022C181.303 535.456 184.033 534.433 186.279 534.657L187.015 535.114C187.068 535.893 187.016 536.242 186.66 536.938L186.984 538.596C187.343 538.701 187.694 538.873 188.068 538.813C187.998 538.883 187.925 538.95 187.858 539.023C184.176 543.012 185.146 552.034 176.671 552.727C172.642 553.057 168.535 550.789 165.382 548.56Q164.773 550.952 164.198 553.353L162.118 552.853C163.231 548.338 164.149 544.733 163.342 540.053L165.233 538.86C165.277 538.676 165.289 538.481 165.364 538.309C165.621 537.725 175.224 537.11 179.11 536.022ZM179.11 536.022C175.224 537.11 165.621 537.725 165.364 538.309C165.289 538.481 165.277 538.676 165.233 538.86L165.959 543.288C173.584 543.302 180.856 542.259 186.66 536.938C187.016 536.242 187.068 535.893 187.015 535.114L186.279 534.657C184.033 534.433 181.303 535.456 179.11 536.022Z"/>
	<path fill="#181617" d="M112.101 173.767C107.893 168.595 99.2307 164.05 94.0549 158.507C90.027 154.194 87.6163 149.115 87.8674 143.129C88.1791 135.7 92.3175 128.934 97.6886 124.007C105.769 116.594 111.242 118.441 119.993 114.801C129.768 110.735 138.315 102.953 149.58 103.522C151.821 103.635 154.098 104.356 155.563 106.155C157.243 108.219 157.929 111.411 157.588 114.029C156.843 119.743 151.647 123.814 147.386 127.072C153.802 133.281 155.063 141.244 159.405 148.684C161.058 150.195 163.047 151.63 163.198 154.05C163.397 157.257 160.681 160.624 160.162 163.802C159.818 165.902 160.506 168.223 159.865 170.273C159.564 171.238 158.942 172.2 158.227 172.907C154.39 176.708 146.75 176.146 141.84 175.921Q142.742 184.387 143.773 192.839C145.998 194.018 148.464 195.106 150.51 196.568L149.509 198.253C143.94 195.438 138.464 192.494 132.465 190.682C127.953 189.793 123.433 189.019 118.825 188.952L118.39 187.23L110.446 187.507C111.682 183.195 112.703 178.847 113.709 174.476C113.234 174.12 112.656 173.97 112.101 173.767ZM146.156 128.395C141.774 129.838 135.881 131.179 133.722 135.768C131.742 139.977 132.762 146.44 132.923 151.047C130.411 149.32 126.062 145.368 122.941 145.921C121.988 146.09 120.379 147.736 119.882 148.54C119.159 149.708 119.002 151.013 119.421 152.322C121.204 157.878 129.669 160.333 130.691 163.247C129.444 163.876 127.837 163.238 126.513 163.029C125.584 165.852 124.39 170.786 121.575 172.226C118.406 173.847 115.244 173.776 113.709 174.476C112.703 178.847 111.682 183.195 110.446 187.507L118.39 187.23L118.825 188.952C123.433 189.019 127.953 189.793 132.465 190.682C138.464 192.494 143.94 195.438 149.509 198.253L150.51 196.568C148.464 195.106 145.998 194.018 143.773 192.839Q142.742 184.387 141.84 175.921C146.75 176.146 154.39 176.708 158.227 172.907C158.942 172.2 159.564 171.238 159.865 170.273C160.506 168.223 159.818 165.902 160.162 163.802C160.681 160.624 163.397 157.257 163.198 154.05C163.047 151.63 161.058 150.195 159.405 148.684L158.154 150.349C153.592 142.906 152.645 134.651 146.156 128.395Z"/>
	<path fill="#020202" d="M147.645 142.169C148.894 142.517 149.908 142.754 150.826 143.739C151.928 144.921 151.495 147.645 151.414 149.142C150.221 148.751 148.85 148.305 148.064 147.263C146.944 145.776 147.405 143.868 147.645 142.169Z"/>
	<path fill="#020202" d="M118.39 187.23C123.7 187.224 128.67 187.516 133.812 189.046L132.465 190.682C127.953 189.793 123.433 189.019 118.825 188.952L118.39 187.23Z"/>
	<path fill="#181617" d="M159.405 148.684C161.058 150.195 163.047 151.63 163.198 154.05C163.397 157.257 160.681 160.624 160.162 163.802C159.818 165.902 160.506 168.223 159.865 170.273C159.564 171.238 158.942 172.2 158.227 172.907C154.39 176.708 146.75 176.146 141.84 175.921Q142.742 184.387 143.773 192.839C145.998 194.018 148.464 195.106 150.51 196.568L149.509 198.253C143.94 195.438 138.464 192.494 132.465 190.682L133.812 189.046C136.34 189.563 138.876 190.551 141.34 191.333C141.035 184.765 140.322 178.252 138.154 172.022C142.316 173.225 146.469 174.069 150.804 173.334C152.985 172.965 156.766 171.953 158.006 169.964C158.388 169.353 158.438 168.785 158.245 168.093C157.457 165.264 153.649 163.842 151.238 162.749C153.034 162.681 154.902 162.732 156.612 162.127C157.806 161.182 158.235 160.061 158.712 158.671C159.393 156.68 160.389 155.727 161.888 154.324L158.154 150.349L159.405 148.684Z"/>
	<path fill="#181617" d="M94.7098 329.546L96.3058 328.189C97.6017 329.661 98.8336 331.417 100.944 331.592C102.662 331.735 104.527 330.809 106.003 330.026C105.947 331.006 105.896 331.16 106.383 331.996C103.45 333.908 99.7384 334.256 96.3486 334.89L93.6855 333.197C94.6004 332.525 95.1402 332.314 95.554 331.238L94.7098 329.546Z"/>
	<path fill="#020202" d="M112.681 322.243L114.168 323.478L112.461 324.976C112.347 328.213 116.011 330.91 117.818 333.407C117.31 333.971 116.824 334.584 116.236 335.063C114.688 332.861 112.949 330.829 111.215 328.774Q108.834 330.437 106.383 331.996C105.896 331.16 105.947 331.006 106.003 330.026C106.068 329.977 106.133 329.929 106.196 329.878C106.302 329.794 106.404 329.705 106.51 329.621C109.159 327.523 110.3 324.553 112.681 322.243Z"/>
	<path fill="#3B3839" d="M86.923 319.337L88.8493 318.756C91.3127 321.915 93.7402 325.113 96.3058 328.189L94.7098 329.546C93.7269 328.449 92.7711 327.298 91.7361 326.251C88.7619 328.476 86.4372 331.527 83.5366 333.673L83.1455 333.294C83.2275 331.801 86.5498 329.075 87.6585 327.962Q83.9731 331.124 80.4014 334.413L79.6244 334.247C82.6511 330.487 86.6433 327.203 90.232 323.995C89.239 322.324 88.1495 320.845 86.923 319.337Z"/>
	<path fill="#2F2D2E" d="M112.681 322.243C120.995 314.688 128.873 306.821 137.406 299.456L139.06 300.506C130.937 308.266 122.968 316.491 114.168 323.478L112.681 322.243Z"/>
	<path fill="#181617" d="M148.6 287.587C145.685 278.779 139.186 253.231 139.955 245.018L140.383 244.527C141.413 245.666 141.871 247.115 142.245 248.582C143.318 252.79 143.728 257.297 144.458 261.58C145.886 269.958 147.832 278.975 150.84 286.924C153.171 286.254 155.377 285.416 157.759 286.335L158.236 287.136C157.494 288.29 156.722 288.852 155.323 289.126C153.767 289.43 152.086 289.373 150.506 289.366C146.712 293.094 142.97 296.901 139.06 300.506L137.406 299.456C141.297 295.678 145.324 291.931 148.6 287.587Z"/>
	<path fill="#020202" fill-opacity="0.98823529" d="M74.6975 300.105C77.4033 282.837 80.1754 265.564 82.6207 248.257C83.8509 239.551 84.4905 230.551 86.1246 221.928C86.4181 220.379 86.825 218.334 87.9744 217.194C90.027 220.075 78.4242 290.919 76.8913 300.562Q82.4302 309.948 88.8493 318.756L86.923 319.337C81.9942 313.71 77.4047 307.109 74.6975 300.105Z"/>
	<path fill="#3F3D40" d="M172.727 311.852C173.394 312.293 173.997 312.731 174.745 313.024L175.905 312.729C177.001 314.379 179.509 338.129 178.777 340.512C178.655 340.91 178.586 340.954 178.361 341.237L178.97 343.263C178.318 343.614 177.712 343.711 177.502 344.456C176.522 347.943 178.499 376.557 178.794 382.827C180.497 418.932 181.072 455.475 184.696 491.426Q185.999 503.656 188.726 515.65C189.407 518.579 192.32 527.672 191.66 529.886C188.389 530.162 181.815 532.676 179.702 535.139C179.458 535.422 179.292 535.697 179.11 536.022C175.224 537.11 165.621 537.725 165.364 538.309C165.289 538.481 165.277 538.676 165.233 538.86L163.342 540.053C162.412 535.971 160.211 531.776 158.501 527.944C155.117 520.358 151.476 512.84 148.377 505.134C140.61 485.823 134.304 465.985 128.134 446.121C117.836 465.701 110.788 488.571 107.653 510.446C106.577 517.954 106.234 525.574 105.49 533.121C104.505 533.882 103.343 534.465 102.265 535.086C101.17 534.115 100.188 534.024 98.7436 534.092C95.4205 534.25 92.1565 535.093 88.8041 535.185C84.1216 535.315 79.6767 534.548 74.9835 535.284C73.8272 534.458 73.4729 532.976 73.2476 531.628C71.3671 520.378 72.2804 502.681 72.2265 490.911Q71.9563 437.97 74.3102 385.081Q74.9589 372.749 76.0261 360.446C76.4756 354.859 77.2599 349.099 76.8935 343.5C76.6627 339.975 75.404 337.012 73.6801 333.972L75.2974 332.817L77.0874 335.602L77.9113 335.71L79.6244 334.247L80.4014 334.413Q83.9731 331.124 87.6585 327.962C86.5498 329.075 83.2275 331.801 83.1455 333.294L83.5366 333.673C86.4372 331.527 88.7619 328.476 91.7361 326.251C92.7711 327.298 93.7269 328.449 94.7098 329.546L95.554 331.238C95.1402 332.314 94.6004 332.525 93.6855 333.197L96.3486 334.89C99.7384 334.256 103.45 333.908 106.383 331.996Q108.834 330.437 111.215 328.774C112.949 330.829 114.688 332.861 116.236 335.063C116.824 334.584 117.31 333.971 117.818 333.407C120.91 336.607 123.578 340.135 126.084 343.803Q137.534 337 148.569 329.541C151.026 327.568 153.745 325.936 156.398 324.243C158.049 322.101 169.623 314.221 172.727 311.852ZM172.727 311.852C169.623 314.221 158.049 322.101 156.398 324.243L157.149 324.75C158.378 323.828 159.721 322.364 161.256 322.299C160.989 322.893 161.08 322.94 160.475 323.268C158.631 324.266 156.357 325.714 155.633 327.774C153.463 329.514 151.176 330.95 148.811 332.401C137.878 340.362 124.619 345.853 114.582 354.895C133.868 355.021 152.347 353.121 170.257 345.47C173.096 344.257 175.602 342.528 178.361 341.237C178.586 340.954 178.655 340.91 178.777 340.512C179.509 338.129 177.001 314.379 175.905 312.729L174.745 313.024C173.997 312.731 173.394 312.293 172.727 311.852ZM111.215 328.774Q108.834 330.437 106.383 331.996C103.45 333.908 99.7384 334.256 96.3486 334.89C89.7577 338.724 86.547 343.752 83.1819 350.389C86.4567 354.774 90.473 357.87 95.8561 359.193C96.3716 358.935 96.8528 358.715 97.2776 358.317C97.9944 357.646 97.9282 357.566 97.9643 356.627C98.4958 357.014 98.9671 357.332 99.6288 357.443C106.689 358.622 117.943 348.978 123.677 345.077C121.041 341.859 118.662 338.441 116.236 335.063C114.688 332.861 112.949 330.829 111.215 328.774ZM108.941 373.551C108.775 374.15 108.326 375.167 108.439 375.756C109.148 379.441 111.229 383.215 112.132 387.03C115.169 399.87 120.685 434.007 126.26 444.098L127.569 445C128.024 443.69 127.898 442.68 127.648 441.349C125.832 431.686 122.83 422.133 120.642 412.531C118.611 403.615 115.482 383.286 112.129 376.09C111.48 374.698 110.589 374.136 109.178 373.625C109.1 373.596 109.02 373.576 108.941 373.551ZM91.7361 326.251C88.7619 328.476 86.4372 331.527 83.5366 333.673L80.8698 337.097L84.3357 341.056C87.0797 337.812 90.1499 335.484 93.6855 333.197C94.6004 332.525 95.1402 332.314 95.554 331.238L94.7098 329.546C93.7269 328.449 92.7711 327.298 91.7361 326.251ZM78.7486 339.18C79.0394 341.761 79.0615 346.846 80.8648 348.739C81.3202 348.343 81.4441 348.319 81.6546 347.727L83.3995 343.888C82.095 342.384 80.5153 340.055 78.7486 339.18Z"/>
	<path fill="#3B3839" d="M156.398 324.243L157.149 324.75C158.378 323.828 159.721 322.364 161.256 322.299C160.989 322.893 161.08 322.94 160.475 323.268C158.631 324.266 156.357 325.714 155.633 327.774C153.463 329.514 151.176 330.95 148.811 332.401L148.631 331.664C147.475 331.7 144.906 333.888 143.392 334.422C145.062 332.643 147.73 331.939 148.569 329.541C151.026 327.568 153.745 325.936 156.398 324.243Z"/>
	<path fill="#020202" d="M109.991 340.096C112.838 340.954 116.346 341.758 118.412 344.027C118.074 344.439 118.135 344.563 117.571 344.61C114.414 344.873 111.546 343.621 108.63 342.578C108.91 341.605 109.411 340.917 109.991 340.096Z"/>
	<path fill="#2F2D2E" d="M95.8561 359.193C95.3976 358.081 94.8308 356.692 95.2102 355.485C95.7147 353.879 97.3172 352.576 98.7579 351.804C100.747 350.737 103.511 350.141 105.683 350.81C105.735 352.115 99.3771 355.002 97.9643 356.627C97.9282 357.566 97.9944 357.646 97.2776 358.317C96.8528 358.715 96.3716 358.935 95.8561 359.193Z"/>
	<path fill="#2F2D2E" d="M103.321 343.322C106.211 343.721 111.408 344.647 113.263 347.005L113.102 347.776C110.344 348.8 107.809 347.423 105.145 346.74C102.721 346.119 100.849 346.898 98.8108 348.13L98.3494 348.411C96.304 350.364 94.4605 352.443 91.5955 353.102L91.2304 352.709C91.3491 352.304 91.3723 352.159 91.5392 351.801C93.4949 347.601 99.2004 344.732 103.321 343.322Z"/>
	<path fill="#181617" d="M108.63 342.578C96.4118 339.879 93.8642 350.097 87.4174 349.244L87.547 348.367Q89.0178 346.606 90.7434 345.093Q92.469 343.581 94.4079 342.354C99.9542 338.862 103.807 338.708 109.991 340.096C109.411 340.917 108.91 341.605 108.63 342.578Z"/>
	<path fill="#2F2D2E" d="M172.727 311.852C173.394 312.293 173.997 312.731 174.745 313.024C169.015 318.231 162.223 323.743 155.633 327.774C156.357 325.714 158.631 324.266 160.475 323.268C161.08 322.94 160.989 322.893 161.256 322.299C159.721 322.364 158.378 323.828 157.149 324.75L156.398 324.243C158.049 322.101 169.623 314.221 172.727 311.852Z"/>
	<path fill="#3F3D40" d="M226.338 429.499C225.002 425.983 225.181 421.849 225.14 418.136C224.903 396.335 225.319 374.504 225.313 352.699L225.323 171.117L225.159 102.89C225.025 90.4722 223.754 69.9746 225.645 58.2221C225.966 56.2293 226.065 54.7689 227.841 53.581C229.865 52.2264 232.191 52.0889 234.552 51.9258C244.752 51.2211 255.225 52.0156 265.457 52.0307L333.246 52.1057L539.424 52.0139L670.098 51.989L701.639 51.9348C709.479 51.9055 718.26 51.0888 725.912 52.8601C726.634 53.3565 727.023 53.7711 727.396 54.5793C730.611 61.5332 727.859 80.8469 727.657 89.1595C727.5 95.5992 729.524 108.814 727.331 114.258C728.658 111.106 728.022 101.956 727.645 98.1912C727.455 96.294 727.275 95.8999 725.808 94.6767C726.439 92.5956 726.16 90.8319 725.178 88.9125C711.916 90.6749 697.931 89.1554 684.558 89.147L598.407 89.2022L354.236 89.4852L281.425 89.4123C263.508 89.3069 245.56 88.7866 227.651 89.5841L227.814 292.469L227.832 381.846C227.825 394.508 227.291 407.231 227.589 419.88C227.66 422.903 227.506 426.552 228.932 429.287L226.338 429.499ZM307.102 64.2541C304.972 65.0891 303.447 65.9681 302.426 68.1635C301.667 69.7947 301.495 71.7532 302.162 73.4421C302.876 75.2532 304.472 76.4696 306.252 77.1345C312.431 79.4423 351.78 78.0959 361.698 78.1013L443.95 78.1714L615.332 78.2098C646.038 78.1998 676.923 78.8121 707.601 77.9872C709.328 77.876 711.086 77.9353 712.518 76.8347C713.965 75.1271 714.32 71.6835 714.107 69.4937C713.959 67.9708 713.289 66.4902 712.073 65.5251C710.389 64.1879 708.028 63.9149 705.947 63.8433C699.961 63.6373 693.887 64.0927 687.891 64.1355L651.073 64.1494L530.501 64.0181L388.106 64.1355C361.143 64.1323 334.051 63.5617 307.102 64.2541ZM246.739 63.1432C244.079 64.5173 241.772 65.8515 240.759 68.8908C240.126 70.7867 240.177 72.7964 241.222 74.5392C242.651 76.9252 245.124 78.011 247.743 78.5147C248.044 78.5726 248.35 78.6052 248.655 78.6405C251.221 77.7821 253.188 76.797 254.546 74.2722Q254.728 73.9326 254.873 73.5759Q255.019 73.2192 255.126 72.8493Q255.234 72.4794 255.302 72.1003Q255.371 71.7212 255.399 71.3371Q255.428 70.9529 255.416 70.5679Q255.405 70.1828 255.354 69.8011Q255.302 69.4193 255.211 69.045Q255.12 68.6707 254.991 68.3078C254.27 66.3223 252.672 64.7443 250.747 63.9056C249.497 63.3606 248.088 63.2312 246.739 63.1432ZM274.498 63.6205C272.137 65.1425 270.198 66.3442 269.518 69.2804C269.048 71.3082 269.194 73.4449 270.34 75.2257C271.41 76.8899 273.192 77.8347 275.099 78.1907C276.323 78.4192 277.449 78.4451 278.677 78.2008C281.162 76.5306 283.313 74.9985 283.899 71.8299C284.242 69.9798 283.897 68.1448 282.73 66.6446C281.245 64.7358 279.051 63.8631 276.714 63.6627C275.971 63.599 275.242 63.5867 274.498 63.6205Z"/>
	<path fill="#3F3D40" d="M773.443 130.017C777.043 123.691 780.835 119.319 788.132 117.356C796.864 115.007 808.677 114.821 816.626 119.459C828.671 126.488 828.138 141.224 834.088 152.23C845.084 172.571 870.989 175.56 877.533 201.19C879.22 207.798 879.18 216.681 876.165 222.975C877.866 224.423 881.803 227.333 882.199 229.472C881.086 229.534 881.004 229.737 880.18 230.431C884.767 233.744 891.325 239.156 892.335 245.003C892.65 246.826 892.142 249.122 891.03 250.619C890.733 251.019 890.736 250.995 890.429 251.282L891.225 252.677C891.536 252.666 891.916 252.7 892.211 252.6C892.238 256.295 889.196 260.304 886.755 262.832C886.088 263.522 885.335 263.999 884.445 264.349C884.013 263.684 883.313 263.529 882.603 263.201C881.497 265.733 877.145 269.987 874.681 271.271C874.959 272.261 874.994 272.462 874.754 273.455L876.21 273.163C874.903 276.774 859.202 284.897 855.421 286.674C849.557 289.43 841.157 293.258 834.611 293.196L834.764 293.628C836.642 298.849 838.814 304.047 840.468 309.36C844.326 321.752 846.889 335.641 848.741 348.481Q851.321 366.989 852.445 385.642C853.134 397.609 856.901 516.671 855.074 520.135C854.857 520.546 854.567 520.818 854.234 521.135C852.915 521.752 852.931 522.202 852.323 523.484L852.163 522.428C849.046 521.849 831.239 524.349 828.384 525.941C827.661 525.587 827.185 525.729 826.401 525.775C825.988 525.431 826.13 525.455 825.689 525.365C825.288 525.283 824.873 525.233 824.469 525.162C822.813 524.872 822.089 524.716 821.347 523.091C818.372 516.578 818.335 506.803 816.864 499.642C815.084 490.974 800.341 431.178 797.01 426.458C797.038 426.257 797.1 425.918 797.093 425.696C797.014 423.077 793.578 413.33 791.605 411.489C791.174 412.004 790.799 412.515 790.251 412.912C790.856 418.867 787.483 427.124 785.882 432.915C779.363 456.498 772.317 479.581 763.427 502.396C760.135 510.844 755.811 518.933 752.643 527.376C749.532 535.668 747.634 544.456 744.629 552.813C744.499 552.098 744.37 551.418 744.152 550.722L742.881 551.177C743.483 549.776 743.823 547.669 743.374 546.201C740.404 548.009 735.544 549.078 732.09 548.624C721.872 547.281 724.977 535.853 722.279 532.739C722.158 532.599 722.022 532.472 721.893 532.338C721.513 531.824 721.568 531.807 721.504 531.215L720.207 530.868C720.939 530.561 722.38 530.091 722.86 529.493C723.759 528.374 723.78 526.382 723.756 525.041C723.597 515.981 726.095 508.257 727.87 499.519Q730.321 487.03 731.654 474.373C733.785 454.634 733.99 434.915 735.429 415.147Q738.236 376.672 745.445 338.775Q749.084 318.387 754.564 298.414C756.571 291.054 760.453 281.518 761.271 274.211C761.456 272.558 760.596 271.175 760.691 269.544C760.746 268.603 760.578 267.901 760.303 267.007C761.541 264.536 760.996 259.151 760.145 256.486C759.815 255.454 759.511 255.49 758.592 255.007L757.665 253.102C752.82 257.703 740.514 271.324 734.102 271.452C728.752 269.769 725.664 264.983 720.809 262.588C720.994 259.976 719.566 257.104 718.292 254.892C719.739 253.796 720.927 251.294 722.157 249.836C724.233 247.375 726.596 245.099 728.802 242.752C731.759 239.604 746.785 221.439 746.678 217.906L746.398 216.73L745.278 216.515C745.599 216.264 745.885 216.015 746.131 215.687C752.172 207.627 759.916 199.976 768.41 194.553C775.297 191.07 782.344 188.969 789.742 186.863C789.863 186.453 789.905 186.391 789.948 186.027C790.282 183.163 789.234 178.161 787.445 175.866C785.462 176.287 783.321 176.868 781.281 176.779C777.545 176.618 775.376 173.875 773.052 171.354C772.759 169.508 770.979 164.964 769.942 163.422L771.321 163.692L771.751 163.005C772.361 160.706 770.566 158.201 770.737 155.736C771.063 151.049 774.602 148.567 772.652 143.534C772.744 143.155 772.867 142.741 772.895 142.348C772.995 140.971 772.366 140.676 771.464 139.768C771.603 139.543 771.762 139.304 771.88 139.064C773.009 136.759 774.183 132.526 773.443 130.017ZM770.397 195.633C769.819 195.143 769.093 194.876 768.41 194.553C759.916 199.976 752.172 207.627 746.131 215.687C745.885 216.015 745.599 216.264 745.278 216.515L746.398 216.73L746.678 217.906C746.785 221.439 731.759 239.604 728.802 242.752C726.596 245.099 724.233 247.375 722.157 249.836C720.927 251.294 719.739 253.796 718.292 254.892C719.566 257.104 720.994 259.976 720.809 262.588C725.664 264.983 728.752 269.769 734.102 271.452C740.514 271.324 752.82 257.703 757.665 253.102L758.592 255.007C759.511 255.49 759.815 255.454 760.145 256.486C760.996 259.151 761.541 264.536 760.303 267.007C760.676 267.933 761.125 270.31 761.873 270.713C779.26 275.099 800.473 280.542 818.035 274.038C822.028 272.56 825.603 270.132 827.334 266.103C828.829 262.622 831.175 256.777 829.727 253.136C826.734 252.314 822.976 252.371 819.847 251.958C810.207 250.688 800.683 246.052 793.987 238.951C782.648 226.926 783.88 212.596 789.713 198.304C790.747 195.771 792.969 192.314 792.977 189.6C792.977 189.5 792.969 189.399 792.965 189.299Q785.177 190.468 777.732 193.037C775.271 193.868 772.925 195.019 770.397 195.633ZM858.967 254.005L856.618 255.04C857.147 255.558 857.801 255.905 857.798 256.682C857.787 260.163 848.45 269.778 845.635 272.17C846.333 272.658 846.808 272.777 847.058 273.623C846.521 275.545 845.018 276.735 843.351 277.692C842.993 277.898 842.643 278.069 842.256 278.21C841.94 279.081 840.925 279.804 840.093 280.172C836.497 281.763 832.148 278.73 828.854 277.442C830.865 280.48 834.137 287.82 833.468 291.367C833.448 291.471 833.409 291.57 833.38 291.671Q834.045 291.526 834.707 291.366C844.318 289.039 869.534 279.694 874.681 271.271C877.145 269.987 881.497 265.733 882.603 263.201C883.313 263.529 884.013 263.684 884.445 264.349C885.335 263.999 886.088 263.522 886.755 262.832C889.196 260.304 892.238 256.295 892.211 252.6C891.916 252.7 891.536 252.666 891.225 252.677L890.429 251.282C890.361 253.914 888.434 256.92 886.573 258.693C886.294 258.96 885.993 259.194 885.681 259.421C885.781 257.072 883.986 254.929 882.476 253.287C880.073 250.674 877.119 249.144 873.543 249.037C867.775 248.865 863.987 252.002 858.967 254.005ZM848.516 250.277C846.419 250.733 844.321 250.999 842.193 251.257C841.056 251.721 840.15 251.812 838.929 251.862C836.914 252.454 834.539 252.468 832.447 252.453C833.761 257.198 829.813 268.61 827.335 272.855C827.187 273.109 827.013 273.347 826.845 273.588C827.636 274.318 828.336 274.986 828.948 275.875L828.854 277.442C832.148 278.73 836.497 281.763 840.093 280.172C840.925 279.804 841.94 279.081 842.256 278.21C842.643 278.069 842.993 277.898 843.351 277.692C845.018 276.735 846.521 275.545 847.058 273.623C846.808 272.777 846.333 272.658 845.635 272.17C848.45 269.778 857.787 260.163 857.798 256.682C857.801 255.905 857.147 255.558 856.618 255.04C856.582 254.941 856.56 254.836 856.511 254.743C855.357 252.509 850.794 250.898 848.516 250.277ZM772.652 143.534C774.602 148.567 771.063 151.049 770.737 155.736C770.566 158.201 772.361 160.706 771.751 163.005L771.321 163.692L769.942 163.422C770.979 164.964 772.759 169.508 773.052 171.354L774.444 169.935C776.072 170.995 776.915 172.981 778.557 174.112C779.783 174.956 781.231 174.983 782.648 174.72C787.311 173.857 791.955 169.498 794.457 165.655C795.508 164.041 796.568 162.015 796.14 160.048C797.818 159.737 799.525 159.328 800.99 158.423C802.894 157.247 805.981 154.024 806.251 151.707C806.362 150.747 805.955 149.8 805.224 149.17C804.115 148.215 803.372 148.209 802.008 148.213C800.387 149.593 800.986 154.777 799.307 157.103C798.594 158.091 797.564 158.726 796.347 158.864C791.812 159.381 785.803 152.204 782.345 149.669C780.516 146.549 778.146 143.53 775.899 140.696C775.609 139.846 775.449 139.07 774.682 138.525C773.35 139.686 773.717 142.054 772.652 143.534ZM874.756 226.055C875.379 228.729 873.383 232.587 872 234.819C867.675 241.805 860.668 247.189 852.701 249.25C854.967 250.235 857.349 251.345 858.859 253.381L858.967 254.005C863.987 252.002 867.775 248.865 873.543 249.037C877.119 249.144 880.073 250.674 882.476 253.287C883.986 254.929 885.781 257.072 885.681 259.421C885.993 259.194 886.294 258.96 886.573 258.693C888.434 256.92 890.361 253.914 890.429 251.282C890.736 250.995 890.733 251.019 891.03 250.619C892.142 249.122 892.65 246.826 892.335 245.003C891.325 239.156 884.767 233.744 880.18 230.431C878.7 228.568 876.953 227.023 874.756 226.055ZM819.917 336.225L819.462 336.425C811.508 339.967 808.925 349.822 806.05 357.365C803.491 364.078 789.059 401.6 791.229 406.45C791.322 406.384 791.421 406.326 791.51 406.253C792.564 405.393 793.108 404.303 793.622 403.074C795.919 397.579 797.485 391.64 799.372 385.978C803.189 374.524 807.068 362.999 811.324 351.702C811.973 349.98 812.615 348.259 813.658 346.729C814.733 345.152 821.181 337.91 821.295 336.933L819.917 336.225ZM799.114 162.331C797.367 166.986 793.846 171.248 789.77 174.065C791.581 176.559 792.794 181.752 792.396 184.791C792.34 185.222 792.207 185.621 792.051 186.024L793.29 186.881C794.61 186.573 795.143 186.148 795.905 184.976C798.789 180.54 801.963 169.052 800.872 163.844C800.717 163.107 800.501 162.984 799.965 162.455L799.114 162.331Z"/>
	<path fill="#3B3839" d="M838.929 251.862Q837.9 251.694 836.878 251.49L836.633 250.871C836.919 250.685 837.083 250.556 837.386 250.429C838.731 249.867 840.566 249.806 841.891 250.371L842.193 251.257C841.056 251.721 840.15 251.812 838.929 251.862Z"/>
	<path fill="#181617" d="M791.229 406.45C792.44 406.837 793.312 407.031 794.001 408.227Q794.187 408.548 794.304 408.9Q794.422 409.252 794.466 409.621Q794.51 409.989 794.48 410.359Q794.449 410.729 794.345 411.085C793.304 411.652 792.773 411.521 791.605 411.489C791.174 412.004 790.799 412.515 790.251 412.912C790.192 412.796 790.12 412.686 790.075 412.564C789.327 410.561 790.518 408.306 791.229 406.45Z"/>
	<path fill="#181617" d="M777.336 139.737C779.498 141.003 782.702 145.186 783.507 147.568C783.664 148.031 783.669 148.411 783.671 148.893L782.345 149.669C780.516 146.549 778.146 143.53 775.899 140.696C776.559 140.464 776.855 140.243 777.336 139.737Z"/>
	<path fill="#181617" d="M773.443 130.017C775.116 130.899 775.603 131.264 776.192 133.155C776.748 134.94 777.635 137.921 777.336 139.737C776.855 140.243 776.559 140.464 775.899 140.696C775.609 139.846 775.449 139.07 774.682 138.525C773.35 139.686 773.717 142.054 772.652 143.534C772.744 143.155 772.867 142.741 772.895 142.348C772.995 140.971 772.366 140.676 771.464 139.768C771.603 139.543 771.762 139.304 771.88 139.064C773.009 136.759 774.183 132.526 773.443 130.017Z"/>
	<path fill="#2F2D2E" d="M794.345 411.085C796.353 412.437 797.53 416.254 797.972 418.587C798.558 421.678 798.278 423.598 797.01 426.458C797.038 426.257 797.1 425.918 797.093 425.696C797.014 423.077 793.578 413.33 791.605 411.489C792.773 411.521 793.304 411.652 794.345 411.085Z"/>
	<path fill="#FDFDFD" d="M726.473 525.084C732.867 524.657 741.562 527.431 748.629 527.744C748.828 528.904 748.835 529.871 748.547 531.006C748.058 532.937 747.217 534.284 745.477 535.306C745.007 535.783 744.502 536.034 743.872 536.241C737.225 538.428 730.362 534.329 724.788 531.174C726.131 529.166 726.884 527.587 726.473 525.084Z"/>
	<path fill="#020202" d="M774.48 165.988C776.754 165.81 779.355 165.379 781.317 166.807C781.127 167.271 781.225 167.329 780.731 167.531C779.658 167.969 778.819 168.193 777.662 168.225L776.388 168.024L775.968 166.41L774.48 165.988Z"/>
	<path fill="#181617" d="M771.751 163.005C771.819 163.083 771.887 163.16 771.954 163.239C772.709 164.139 773.097 164.954 773.493 166.052L774.48 165.988L775.968 166.41L776.388 168.024L777.662 168.225L777.115 168.391C776.409 168.598 775.754 168.648 775.023 168.696C774.731 169.151 774.57 169.4 774.444 169.935L773.052 171.354C772.759 169.508 770.979 164.964 769.942 163.422L771.321 163.692L771.751 163.005Z"/>
	<path fill="#3B3839" d="M839.99 276.795C842.113 275.674 844.038 273.947 845.635 272.17C846.333 272.658 846.808 272.777 847.058 273.623C846.521 275.545 845.018 276.735 843.351 277.692C842.993 277.898 842.643 278.069 842.256 278.21C841.662 277.372 840.916 277.212 839.99 276.795Z"/>
	<path fill="#3B3839" d="M826.845 273.588L827.286 273.699C830.825 274.62 835.904 279.28 839.398 277.217C839.6 277.097 839.806 276.933 839.99 276.795C840.916 277.212 841.662 277.372 842.256 278.21C841.94 279.081 840.925 279.804 840.093 280.172C836.497 281.763 832.148 278.73 828.854 277.442L828.948 275.875C828.336 274.986 827.636 274.318 826.845 273.588Z"/>
	<path fill="#2F2D2E" d="M858.967 254.005C863.987 252.002 867.775 248.865 873.543 249.037C877.119 249.144 880.073 250.674 882.476 253.287C883.986 254.929 885.781 257.072 885.681 259.421C885.993 259.194 886.294 258.96 886.573 258.693C888.434 256.92 890.361 253.914 890.429 251.282L891.225 252.677C891.536 252.666 891.916 252.7 892.211 252.6C892.238 256.295 889.196 260.304 886.755 262.832C886.088 263.522 885.335 263.999 884.445 264.349C884.013 263.684 883.313 263.529 882.603 263.201C883.569 262.146 883.773 261.84 883.725 260.325C883.657 258.207 882.009 256.282 880.457 254.974C877.724 252.671 874.135 251.153 870.517 251.599C860.133 252.88 855.516 269.081 847.058 273.623C846.808 272.777 846.333 272.658 845.635 272.17C848.45 269.778 857.787 260.163 857.798 256.682C857.801 255.905 857.147 255.558 856.618 255.04L858.967 254.005Z"/>
	<path fill="#2F2D2E" d="M745.278 216.515C745.599 216.264 745.885 216.015 746.131 215.687C752.172 207.627 759.916 199.976 768.41 194.553C769.093 194.876 769.819 195.143 770.397 195.633C768.638 198.082 764.459 199.644 762.091 201.724C758.928 204.503 748.707 216.993 746.678 217.906L746.398 216.73L745.278 216.515Z"/>
	<path fill="#020202" d="M757.665 253.102L758.05 252.846C764.222 248.671 767.68 241.988 774.928 239.264L775.26 239.593C772.24 243.873 766.198 249.503 761.528 252.103C763.705 255.749 763.797 265.314 762.703 269.224C762.532 269.837 762.272 270.23 761.873 270.713C761.125 270.31 760.676 267.933 760.303 267.007C761.541 264.536 760.996 259.151 760.145 256.486C759.815 255.454 759.511 255.49 758.592 255.007L757.665 253.102Z"/>
	<path fill="#181617" d="M688.048 184.849C689.482 185.648 692.751 187.55 693.145 189.203C693.166 189.291 693.169 189.383 693.18 189.472L692.279 191.335C691.918 190.497 691.17 189.989 690.492 189.412C689.135 189.178 689.156 189.201 688 189.96C687.434 188.884 686.956 188.93 685.845 188.512C686.018 187.703 685.96 187.058 685.867 186.25C686.709 185.334 686.787 185.139 688.048 184.849Z"/>
	<path fill="#020202" d="M269.34 212.533C271.935 215.931 270.776 224.238 270.71 228.563C270.065 229.152 269.294 229.706 268.951 230.529C268.923 224.536 269.186 218.525 269.34 212.533Z"/>
	<path fill="#181617" d="M270.71 228.563L271.023 228.677C271.155 233.363 271.12 238.137 271.748 242.784C272.669 243.609 274.414 243.504 275.647 243.652C274.24 243.915 273.163 244.01 272.103 245.063C271.462 244.85 270.985 244.528 270.419 244.172C268.308 240.71 269.008 234.455 268.951 230.529C269.294 229.706 270.065 229.152 270.71 228.563Z"/>
	<path fill="#3F3D40" d="M508.979 290.564C508.936 286.295 508.35 274.896 510.236 271.541C510.76 270.609 511.312 270.624 512.25 270.338L512.648 270.983C513.956 271.093 515.191 271.255 516.471 271.552C515.009 271.84 513.095 271.823 512.23 273.204C509.784 277.109 512.057 283.415 510.933 287.839L510.794 287.746L510.635 286.357C510.634 286.496 510.643 286.635 510.631 286.774C510.565 287.511 510.252 288.054 509.916 288.695L509.637 287.461L508.979 290.564Z"/>
	<path fill="#181617" d="M508.979 290.564L509.637 287.461L509.916 288.695C510.252 288.054 510.565 287.511 510.631 286.774C510.643 286.635 510.634 286.496 510.635 286.357L510.794 287.746L510.933 287.839C510.869 296.495 511.131 305.146 511.13 313.801C510.759 312.409 510.631 310.94 509.632 309.887L509.63 310.87L509.358 310.683C509.385 310.833 509.415 310.983 509.44 311.134C509.73 312.906 509.382 315.152 509.291 316.966C508.265 308.561 508.712 299.041 508.979 290.564Z"/>
	<path fill="#2F2D2E" d="M465.342 385.994L466.108 386.5C466.625 388.177 466.448 389.739 466.311 391.455C468.174 389.023 465.709 362.313 467.459 356.893C467.55 364.053 469.204 392.884 465.515 396.71C464.396 397.871 462.183 398.274 460.628 398.451C456.093 398.968 451.251 398.439 446.675 398.412C440.272 398.375 433.847 398.708 427.45 398.344C426.88 398.311 427.054 398.321 426.414 398.201C431.992 397.459 437.877 398.744 443.474 397.675L443.33 397.247C439.95 396.049 434.567 396.68 430.922 396.675L430.922 396.333C437.027 396.321 459.054 397.31 463.849 395.013C465.799 392.655 465.325 388.898 465.342 385.994Z"/>
	<path fill="#3B3839" d="M677.852 119.341C680.652 119.241 684.151 118.85 686.317 121.041C687.902 122.644 688.383 125.911 688.628 128.062C689.526 135.954 688.786 144.23 688.74 152.18C688.686 161.418 689.189 170.634 688.62 179.867C688.519 181.513 688.097 183.242 688.048 184.849C686.787 185.139 686.709 185.334 685.867 186.25C686.063 185.785 686.253 185.292 686.348 184.794C687.327 179.681 687.237 125.753 685.298 123.245C683.56 120.996 680.064 121.083 677.471 120.817L677.852 119.341Z"/>
	<path fill="#020202" fill-opacity="0.98431373" d="M725.808 94.6767C727.275 95.8999 727.455 96.294 727.645 98.1912C728.022 101.956 728.658 111.106 727.331 114.258C727.578 114.851 727.802 115.475 727.842 116.121C728.267 122.882 727.692 201.369 727.202 202.687C727.168 202.777 727.128 202.865 727.092 202.955C726.155 200.49 727.494 198.017 725.958 195.514C727.169 191.597 726.029 176.269 725.998 171.259L725.987 128.632C726.027 120.421 726.607 112.205 726.538 104.004C726.513 101.063 726.697 97.498 725.808 94.6767Z"/>
	<path fill="#3F3D40" d="M351.857 395.977L430.922 396.333L430.922 396.675C434.567 396.68 439.95 396.049 443.33 397.247L443.474 397.675C437.877 398.744 431.992 397.459 426.414 398.201C421 398.284 415.573 398.211 410.158 398.213C392.677 398.986 374.809 398.437 357.312 398.077C357.28 397.635 357.117 397.169 357.009 396.738C355.515 395.798 353.575 396.012 351.857 395.977Z"/>
	<path fill="#020202" d="M392.688 397.42C404.201 395.317 419.082 396.633 430.922 396.675C434.567 396.68 439.95 396.049 443.33 397.247L443.474 397.675C437.877 398.744 431.992 397.459 426.414 398.201C421 398.284 415.573 398.211 410.158 398.213C404.348 398.092 398.436 398.344 392.688 397.42Z"/>
	<path fill="#181617" d="M467.299 282.377C468.035 295.806 467.579 309.504 467.516 322.957C467.463 334.248 467.83 345.616 467.459 356.893C465.709 362.313 468.174 389.023 466.311 391.455C466.448 389.739 466.625 388.177 466.108 386.5L465.342 385.994C464.175 374.783 465.238 360.024 465.273 348.4C465.334 328.097 464.724 307.601 465.673 287.323L466.694 287.205C467.517 285.868 467.275 283.913 467.299 282.377Z"/>
	<path fill="#020202" d="M514.387 119.495C523.802 118.842 533.203 119.283 542.63 119.281L593.019 119.29Q619.304 119.412 645.588 119.259C656.324 119.22 667.126 118.958 677.852 119.341L677.471 120.817C642.617 120.214 607.645 121.025 572.782 121.162C553.494 121.238 533.697 119.528 514.459 121.255L514.387 119.495Z"/>
	<path fill="#3F3D40" d="M509.873 242.699C508.323 236.608 509.256 212.973 509.25 204.885C509.232 179.225 508.664 153.415 509.291 127.772C509.332 126.123 509.279 124.037 509.996 122.522C510.844 120.732 512.668 120.125 514.387 119.495L514.459 121.255C513.056 122.151 512.324 122.746 511.954 124.414C510.147 132.553 511.595 147.373 511.62 156.216L511.555 225.27C511.54 229.248 510.44 239.454 511.571 242.519L509.873 242.699Z"/>
	<path fill="#3F3D40" d="M686.272 271.224C687.359 271.937 687.818 272.173 688.124 273.54C689.551 279.922 688.637 305.057 688.636 313.445L688.659 361.941C688.667 370.678 688.924 379.511 688.616 388.238C688.537 390.481 688.672 394.513 687.32 396.332C686.453 397.5 684.862 398.225 683.433 398.296C681.894 398.373 680.302 398.125 678.766 398.01C678.9 397.577 678.87 397.256 678.857 396.807L677.215 396.336C678.992 396.439 680.762 396.497 682.528 396.208C684.002 395.968 684.794 395.441 685.663 394.25C687.129 388.094 686.417 380.596 686.424 374.259L686.325 340.757L686.315 299.543C686.33 292.367 686.618 285.103 686.307 277.941C686.244 276.484 686.175 275.305 685.411 274.022C685.81 273.844 686.163 273.564 686.524 273.32L686.272 271.224Z"/>
	<path fill="#020202" d="M464.987 242.13L465.896 244.072C462.952 245.454 460.25 245.583 457.047 245.69C442.88 246.164 428.614 245.64 414.433 245.613L333.874 245.627L296.327 245.635C288.453 245.674 279.833 246.691 272.103 245.063C273.163 244.01 274.24 243.915 275.647 243.652C281.903 244.646 288.957 243.965 295.296 243.935L330.144 243.925L411.254 243.974C422.94 243.999 434.659 244.391 446.34 244.215C450.482 244.153 462.178 245.02 464.987 242.13Z"/>
	<path fill="#3B3839" d="M512.25 270.338C519.382 268.149 568.876 269.436 579.479 269.439L642.753 269.426C654.177 269.409 665.674 269.109 677.09 269.412C679.534 269.476 683.585 269.33 685.689 270.566C686.206 270.87 686.054 270.717 686.272 271.224L686.524 273.32C686.163 273.564 685.81 273.844 685.411 274.022L685.382 273.047C684.292 271.851 683.314 271.7 681.724 271.568C669.473 270.55 654.138 271.574 641.53 271.585L546.969 271.426C536.855 271.328 526.552 272.053 516.471 271.552C515.191 271.255 513.956 271.093 512.648 270.983L512.25 270.338Z"/>
	<path fill="#020202" d="M270.199 120.212C278.33 118.479 287.362 119.276 295.661 119.3L331.792 119.356L417.725 119.311C431.882 119.307 446.098 119.02 460.247 119.297C461.498 119.322 462.805 119.403 463.962 119.922C465.817 120.754 466.393 122.23 467.052 123.996L465.396 124.698C464.859 123.404 464.573 122.694 463.365 121.938C455.452 120.469 446.84 121.116 438.807 121.15L405.346 121.183L321.896 121.274C307.685 121.22 293.375 120.587 279.185 120.739C277.37 120.758 275.203 120.814 273.644 121.85C272.305 122.741 271.76 124.358 271.532 125.877C270.443 133.134 271.212 141.458 271.196 148.821L269.178 149.697C268.856 140.078 268.592 129.702 270.199 120.212Z"/>
	<path fill="#020202" d="M271.391 270.248L272.246 271.955C271.48 273.51 271.281 274.911 271.211 276.63C270.464 295.013 271.443 313.677 271.318 332.099L271.127 371.911C271.132 379.813 270.64 388.373 271.952 396.178L351.857 395.977C353.575 396.012 355.515 395.798 357.009 396.738C357.117 397.169 357.28 397.635 357.312 398.077L301.739 398.56C292.638 398.602 282.852 399.26 273.842 398.081C272.129 397.857 271.423 397.612 270.114 396.489C267.816 385.821 268.872 367.158 268.902 355.624C268.97 329.734 269.355 303.881 269.127 277.987C269.1 274.855 269.074 272.604 271.391 270.248Z"/>
	<path fill="#020202" d="M509.291 316.966C509.382 315.152 509.73 312.906 509.44 311.134C509.415 310.983 509.385 310.833 509.358 310.683L509.63 310.87L509.632 309.887C510.631 310.94 510.759 312.409 511.13 313.801C511.747 328.871 511.591 343.922 511.335 358.999C511.227 365.309 511.633 372.072 510.867 378.318C511.014 383.042 510.067 391.251 512.418 395.314C514.295 396.492 517.236 396.513 519.402 396.604C530.463 397.07 541.873 396.2 552.962 396.095C577.607 395.863 602.283 396.278 626.934 396.207L658.965 396.172C665.045 396.173 671.145 395.926 677.215 396.336L678.857 396.807C678.87 397.256 678.9 397.577 678.766 398.01C666.223 398.917 653.652 398.173 641.096 398.055C625.382 397.909 609.644 398.174 593.922 398.1L540.652 398.365C533.833 398.388 526.962 398.669 520.149 398.448C517.327 398.356 513.8 398.114 511.169 397.078C507.067 391.343 509.192 371.049 509.412 363.981C508.82 358.818 509.258 353.103 509.251 347.899Q509.181 332.433 509.291 316.966Z"/>
	<path fill="#020202" d="M693.18 189.472C696.458 190.766 699.972 197.678 701.393 200.906C702.107 202.527 703.166 205.434 702.595 207.204C702.562 207.304 702.505 207.395 702.461 207.491C706.274 209.622 723.675 224.119 724.65 227.221C724.698 227.373 724.716 227.532 724.749 227.688C726.973 223.854 726.828 200.715 725.958 195.514C727.494 198.017 726.155 200.49 727.092 202.955C728.527 205.993 728.755 225.813 727.527 229.184L727.324 229.724C729.344 230.639 731.174 231.963 732.368 233.865C734.806 232.172 744.772 218.963 745.278 216.515L746.398 216.73L746.678 217.906C746.785 221.439 731.759 239.604 728.802 242.752C726.596 245.099 724.233 247.375 722.157 249.836C720.927 251.294 719.739 253.796 718.292 254.892C719.566 257.104 720.994 259.976 720.809 262.588C725.664 264.983 728.752 269.769 734.102 271.452L735.224 272.062C734.878 272.677 734.663 272.862 734.034 273.179C731.508 272.766 729.347 271.579 726.906 270.954C727.526 271.747 727.768 272.42 727.866 273.411C728.365 278.472 728.166 283.787 728.176 288.877Q728.269 304.29 727.743 319.694C727.635 324.09 728.248 329.177 727.656 333.481C727.582 334.022 727.412 334.382 727.188 334.873C728.104 338.825 728.409 361.048 726.893 364.068L726.336 364.059L725.613 362.824C725.693 362.543 725.776 362.263 725.835 361.977C726.673 357.913 726.084 352.785 726.077 348.614L725.839 317.029C725.711 302.182 726.743 287.318 725.566 272.47C725.458 271.106 725.369 269.952 724.572 268.786C723.827 266.279 720.603 265.228 719.313 262.944C717.653 260.004 717.747 256.185 716.298 253.093C713.006 246.069 698.456 223.516 693.214 218.755L694.616 217.401C694.999 217.571 695.32 217.708 695.631 217.998C698.386 220.563 716.954 248.106 716.922 250.954C717.377 250.749 717.789 250.527 718.204 250.247C721.799 247.818 730.297 240.183 731.083 235.995C731.047 235.868 731.031 235.734 730.975 235.614C729.347 232.118 703.75 210.399 700.589 208.933C700.938 207.753 700.881 206.766 700.666 205.574C699.916 201.421 695.799 193.785 692.279 191.335L693.18 189.472Z"/>
	<path fill="#020202" d="M684.356 187.684L685.431 188.717L685.845 188.512C686.956 188.93 687.434 188.884 688 189.96C688.964 190.852 690.312 192.809 690.577 194.102C690.723 194.816 690.582 194.781 690.232 195.358C690.04 195.337 689.847 195.327 689.657 195.297C687.24 194.924 685.025 191.281 683.607 189.442L684.432 188.877L684.356 187.684Z"/>
	<path fill="#020202" fill-opacity="0.98823529" d="M538.741 166.251C540.151 167.709 540.063 168.531 540.104 170.541C539.606 173.45 539.115 176.35 538.434 179.224L536.642 179.861L536.123 179.416Q537.266 172.801 538.741 166.251Z"/>
	<path fill="#181617" d="M566.41 132.129C570.073 132.782 573.849 133.303 577.449 134.231L577.382 136.762C574.031 136.252 570.725 135.751 567.441 134.896C567.667 133.753 566.988 133.096 566.41 132.129Z"/>
	<path fill="#020202" d="M553.144 129.844C557.538 130.629 561.981 131.601 566.41 132.129C566.988 133.096 567.667 133.753 567.441 134.896C562.883 134.204 558.334 133.037 553.827 132.056L553.144 129.844Z"/>
	<path fill="#2F2D2E" d="M633.621 244.159C648.612 243.354 663.8 243.902 678.795 244.012L678.949 245.156C678.371 245.325 677.833 245.481 677.24 245.593C667.345 246.325 657.007 245.684 647.071 245.546C648.364 245.507 649.435 245.44 650.669 245.037L650.29 244.621C644.823 243.974 639.134 244.306 633.621 244.159Z"/>
	<path fill="#020202" fill-opacity="0.98823529" d="M679.825 209.415C679.326 208.007 677.853 206.513 677.013 205.231C674.784 201.828 675.172 197.396 676.036 193.597C676.894 189.823 678.481 185.634 681.875 183.456C683.095 183.301 683.089 183.183 684.136 183.959C684.511 185.341 684.649 186.273 684.356 187.684L684.432 188.877L683.607 189.442C682.736 187.344 681.914 185.754 680.115 184.274C681.681 188.803 677.311 195.111 677.483 200.058C677.599 203.353 681.056 205.664 681.117 208.498C680.714 208.816 680.302 209.226 679.825 209.415Z"/>
	<path fill="#181617" d="M681.117 208.498C685.515 210.883 690.695 213.256 694.425 216.646L694.616 217.401L693.214 218.755C691.885 216.6 690.045 216.334 687.71 215.775C689.352 219.038 689.394 236.713 688.163 240.326C688.025 240.731 687.83 241.052 687.562 241.38C686.896 243.22 685.716 244.441 684.044 245.425C681.751 245.627 679.54 245.674 677.24 245.593C677.833 245.481 678.371 245.325 678.949 245.156L678.795 244.012C681.116 243.887 683.443 243.853 685.283 242.238C687.752 237.517 686.998 221.71 686.143 216.098C685.663 212.944 682.215 211.168 679.825 209.415C680.302 209.226 680.714 208.816 681.117 208.498Z"/>
	<path fill="#020202" d="M511.571 242.519C516.192 245.33 531.081 243.473 537.305 244.231C546.724 243.9 556.237 244.213 565.665 244.232C588.298 244.278 610.994 244.552 633.621 244.159C639.134 244.306 644.823 243.974 650.29 244.621L650.669 245.037C649.435 245.44 648.364 245.507 647.071 245.546C633.667 246.244 620.121 245.589 606.694 245.585L524.017 245.755C521.316 246.105 518.202 246.327 515.494 245.929C512.918 245.55 511.425 244.786 509.873 242.699L511.571 242.519Z"/>
	<path fill="#2F2D2E" d="M538.741 166.251C540.192 158.634 541.839 134.936 547.799 130.53C549.479 129.288 551.224 129.58 553.144 129.844L553.827 132.056C558.334 133.037 562.883 134.204 567.441 134.896C570.725 135.751 574.031 136.252 577.382 136.762L577.449 134.231C589.833 137.612 644.097 144.679 649.892 150.207C652.578 155.541 648.183 176.157 646.262 182.275Q645.852 183.567 645.255 184.783C650.575 188.671 653.464 195.251 654.47 201.644Q654.581 202.307 654.659 202.976Q654.736 203.644 654.78 204.315Q654.824 204.987 654.834 205.659Q654.844 206.332 654.82 207.004Q654.796 207.677 654.738 208.347Q654.68 209.017 654.589 209.683Q654.498 210.35 654.373 211.011Q654.248 211.672 654.09 212.326Q653.932 212.98 653.741 213.625Q653.551 214.27 653.328 214.905Q653.105 215.54 652.85 216.162Q652.596 216.785 652.31 217.394Q652.024 218.003 651.709 218.597Q651.393 219.191 651.047 219.768Q650.702 220.345 650.328 220.904Q649.954 221.463 649.552 222.003C644.823 228.275 637.431 232.331 629.688 233.369Q628.954 233.472 628.216 233.539Q627.477 233.606 626.737 233.636Q625.996 233.667 625.255 233.66Q624.514 233.653 623.774 233.61Q623.034 233.567 622.297 233.486Q621.56 233.406 620.828 233.29Q620.096 233.173 619.37 233.02Q618.645 232.868 617.928 232.679Q617.211 232.491 616.504 232.267Q615.798 232.043 615.103 231.784Q614.408 231.525 613.727 231.232Q613.046 230.939 612.381 230.613Q611.715 230.287 611.067 229.928Q610.418 229.569 609.788 229.178Q609.158 228.787 608.548 228.366Q607.938 227.944 607.35 227.493C604.849 225.546 602.733 223.199 600.648 220.828C587.309 217.876 573.884 215.721 560.409 213.492C553.468 212.344 546.347 211.445 539.507 209.789C537.647 209.338 533.069 208.419 531.993 206.799C530.219 204.13 534.847 183.536 535.994 179.737C536.027 179.627 536.08 179.523 536.123 179.416L536.642 179.861L538.434 179.224C539.115 176.35 539.606 173.45 540.104 170.541C540.063 168.531 540.151 167.709 538.741 166.251ZM545.348 143.569C544.217 152.617 541.782 161.575 540.104 170.541C539.606 173.45 539.115 176.35 538.434 179.224C537.536 183.329 536.735 187.394 536.173 191.56C555.929 195.793 576.147 200.279 596.173 202.947C597.156 198.817 598.133 194.415 600.543 190.85C601.716 188.292 603.776 185.91 605.917 184.107C611.306 179.569 619.026 176.78 626.081 177.336C627.217 177.271 628.322 177.316 629.452 177.434C634.044 177.915 640.183 179.312 643.255 183.087C643.306 182.971 643.36 182.855 643.409 182.737C645.204 178.473 648.08 167.172 646.334 162.95C643.997 161.533 555.204 145.106 545.348 143.569ZM625.79 179.339C625.707 179.354 625.624 179.37 625.541 179.385C623.748 179.693 621.92 179.544 620.144 179.925C613.843 181.274 607.433 185.058 603.65 190.337C602.879 191.412 602.161 192.529 601.448 193.643C600.176 196.443 599.228 199.406 598.83 202.462C597.987 208.952 599.547 215.531 603.578 220.728C608.073 226.524 615.424 230.475 622.688 231.284Q623.366 231.36 624.048 231.403Q624.729 231.445 625.412 231.454Q626.094 231.463 626.777 231.439Q627.459 231.414 628.139 231.356Q628.819 231.298 629.496 231.206Q630.172 231.115 630.843 230.99Q631.515 230.866 632.179 230.708Q632.843 230.55 633.499 230.36Q634.154 230.17 634.8 229.948Q635.446 229.726 636.079 229.472Q636.713 229.219 637.334 228.934Q637.954 228.65 638.56 228.335Q639.166 228.021 639.756 227.676Q640.345 227.332 640.917 226.96Q641.49 226.587 642.042 226.187Q642.595 225.786 643.128 225.359C648.477 221.075 651.881 215.119 652.54 208.269C653.186 201.548 651.171 194.317 646.802 189.133C641.265 182.563 634.067 180.113 625.79 179.339ZM545.804 141.166Q579.948 148.015 614.213 154.231C624.1 156.058 637.558 157.291 646.629 160.556C647.993 158.901 648.795 156.602 648.654 154.434C648.577 153.248 648.106 151.95 647.203 151.143C643.389 147.737 586.605 138.205 577.382 136.762C574.031 136.252 570.725 135.751 567.441 134.896C562.883 134.204 558.334 133.037 553.827 132.056C552.3 131.814 550.868 131.268 549.452 132.14C547.029 133.633 546.429 138.558 545.804 141.166ZM535.821 193.954C535.044 197.135 533.123 202.172 534.256 205.344C537.81 207.947 588.03 215.896 597.517 217.873L598.594 217.642C598.371 213.572 596.563 209.522 595.912 205.464C575.98 201.034 555.805 198.065 535.821 193.954Z"/>
	<path fill="#3B3839" d="M600.543 190.85C601.716 188.292 603.776 185.91 605.917 184.107C611.306 179.569 619.026 176.78 626.081 177.336C626.212 177.389 626.342 177.444 626.473 177.495C630.37 179.007 635.636 178.677 639.166 181.016L638.899 181.453C638.181 181.45 638.035 181.283 637.511 180.878C635.789 179.547 629.709 178.384 627.511 178.731C626.891 178.829 626.345 179.058 625.79 179.339C625.707 179.354 625.624 179.37 625.541 179.385C623.748 179.693 621.92 179.544 620.144 179.925C613.843 181.274 607.433 185.058 603.65 190.337C602.879 191.412 602.161 192.529 601.448 193.643C601.296 192.691 600.877 191.752 600.543 190.85Z"/>
	<path fill="#020202" d="M557.596 135.29C558 135.368 558.409 135.447 558.804 135.561C560.333 136.002 560.901 136.658 561.657 137.946C561.853 139.529 561.21 140.55 560.498 141.894C558.632 141.516 557.729 141.183 556.661 139.62C556.428 138.001 557.018 136.759 557.596 135.29Z"/>
	<path fill="#020202" d="M569.222 137.655C569.931 137.726 570.727 137.765 571.409 137.972C572.56 138.32 572.858 139.029 573.388 139.986C573.538 141.615 572.909 142.814 572.263 144.256C571.675 144.208 571.013 144.179 570.45 143.998C569.195 143.596 568.83 143.028 568.185 141.982C567.996 140.252 568.521 139.173 569.222 137.655Z"/>
	<path fill="#2F2D2E" d="M618.539 194.443C622.712 195.58 636.657 203.098 638.721 206.694C637.643 208.714 633.34 210.663 631.212 211.593C631.06 211.75 630.824 212.003 630.644 212.152C628.658 213.796 622.84 217.513 620.253 217.147C619.404 217.027 618.677 216.495 618.233 215.755C616.15 212.284 617.473 198.322 618.539 194.443ZM619.991 197.228C620.149 203.113 619.876 208.931 619.892 214.804C622.526 213.88 627.568 212.297 629.298 209.989C630.834 209.308 633.697 208.104 634.345 206.452C632.128 203.346 623.629 199.318 619.991 197.228Z"/>
	<path fill="#2F2D2E" d="M574.366 160.94L575.059 161.12C577.434 163.263 578.23 168.024 579.06 171.051C581.339 171.485 584.049 171.802 585.95 173.196C586.332 173.829 586.675 174.064 586.501 174.834C585.977 177.151 582.301 179.121 580.407 180.398C580.385 182.438 580.694 185.597 579.606 187.397C579.03 188.352 578.713 188.323 577.693 188.599C575.159 188.12 572.767 186.143 570.635 184.74C568.672 185.549 565.785 187.119 563.673 186.942C562.425 186.837 562.165 186.557 561.376 185.684C560.819 182.749 562.648 180.004 563.926 177.463C562.033 175.381 559.934 173.441 559.568 170.52C559.839 169.796 559.857 169.418 560.51 168.991C562.636 167.601 566.109 168.699 568.463 169.138C570.014 166.094 572.039 163.425 574.366 160.94Z"/>
	<path fill="#020202" d="M584.889 307.226C589.893 306.859 609.026 306.002 612.777 308.234L612.017 308.904C606.865 309.067 587.241 310.563 584.355 307.93L584.889 307.226Z"/>
	<path fill="#020202" d="M592.232 329.568C602.701 329.089 613.316 329.535 623.805 329.523C632.63 329.514 641.578 329.023 650.386 329.341C651.717 329.389 653.465 329.329 654.598 330.087C654.516 330.177 654.446 330.279 654.352 330.357C652.507 331.89 648.125 331.578 645.802 331.603C636.415 331.874 626.99 331.548 617.593 331.647C606.927 331.759 595.611 332.653 585.05 331.143L584.804 330.456L584.613 331.045L584.332 330.954C585.739 329.491 590.154 329.697 592.232 329.568Z"/>
	<path fill="#020202" d="M585.168 289.575C591.565 288.899 652.005 288.694 655.132 289.778L654.961 290.313L652.979 290.897C652.294 291.206 651.702 291.308 650.958 291.38C642.337 292.216 633.031 291.307 624.319 291.345C612.328 291.396 599.805 292.345 587.874 291.564C586.571 291.478 585.725 291.297 584.721 290.475L585.168 289.575Z"/>
	<path fill="#020202" d="M585.548 338.845C595.05 338.454 649.092 337.428 654.33 339.475L654.348 340.187L652.906 340.693C645.074 340.875 588.348 341.579 585.505 340.026C585.208 339.864 585.013 339.563 584.767 339.331L585.548 338.845Z"/>
	<path fill="#020202" d="M584.587 298.375C593.654 297.88 649.296 297.208 654.583 299.069L654.778 299.765L653.519 300.297C649.894 301.113 645.16 300.634 641.408 300.642L614.888 300.574C605.773 300.556 596.603 301.101 587.495 300.777C586.131 300.728 585.329 300.665 584.392 299.647L584.587 298.375Z"/>
	<path fill="#2F2D2E" d="M550.664 321.634C555.25 321.346 567.259 320.334 570.858 322.543C571.646 323.027 571.874 323.927 572.087 324.797C573.144 329.108 573.621 339.911 571.283 343.66C570.34 344.396 569.661 344.449 568.487 344.546C563.536 344.657 553.94 345.744 549.554 344.046C548.27 343.548 547.677 342.381 547.197 341.159C545.549 336.966 545.618 328.109 547.55 324.059C548.265 322.561 549.135 322.141 550.664 321.634Z"/>
	<path fill="#2F2D2E" d="M555.343 285.91C559.968 285.623 566.506 284.908 570.864 286.621C572.13 287.863 572.188 290.159 572.336 291.838C572.698 295.939 573.435 305.989 570.769 309.14C568.579 310.071 565.345 309.688 562.969 309.689C559.48 309.734 551.208 310.62 548.467 308.11C546.889 306.666 546.542 303.316 546.372 301.298C546.06 297.609 545.749 290.115 548.436 287.152C549.822 285.624 553.399 285.955 555.343 285.91Z"/>
	<path fill="#2F2D2E" d="M558.466 355.529C561.786 355.406 565.741 355.024 568.894 356.205C570.134 356.669 570.94 357.319 571.427 358.534C573.284 363.167 573.254 374.742 571.315 379.292C569.328 381.3 563.211 380.671 560.465 380.716C557.559 380.679 550.795 381.121 548.503 379.358C546.966 378.175 546.63 374.72 546.464 372.925C546.119 369.18 545.703 359.959 548.382 357.185C550.217 355.285 555.97 355.651 558.466 355.529Z"/>
	<path fill="#020202" fill-opacity="0.97647059" d="M465.398 218.904C466.73 221.115 465.82 226.415 466.085 229.205C466.1 229.108 466.113 229.011 466.129 228.915C466.326 227.689 466.848 226.779 467.186 225.631C467.236 231.069 468.213 239.157 465.896 244.072L464.987 242.13C464.451 234.64 465.291 226.461 465.398 218.904Z"/>
	<path fill="#3F3D40" d="M269.178 149.697L271.196 148.821L271.023 228.677L270.71 228.563C270.776 224.238 271.935 215.931 269.34 212.533C268.533 191.69 269.248 170.571 269.178 149.697Z"/>
	<path fill="#020202" fill-opacity="0.98823529" d="M467.052 123.996C467.868 128.483 467.297 133.626 467.251 138.19L467.22 158.962L467.234 202.866C467.238 210.411 467.568 218.107 467.186 225.631C466.848 226.779 466.326 227.689 466.129 228.915C466.113 229.011 466.1 229.108 466.085 229.205C465.82 226.415 466.73 221.115 465.398 218.904C464.919 206.675 465.299 194.265 465.287 182.018Q465.127 153.358 465.396 124.698L467.052 123.996Z"/>
	<path fill="#3F3D40" d="M346.326 219.772C336.024 213.959 328.16 205.513 324.864 193.936Q324.597 193 324.375 192.052Q324.153 191.104 323.978 190.146Q323.803 189.188 323.675 188.223Q323.546 187.258 323.465 186.288Q323.384 185.317 323.35 184.344Q323.316 183.371 323.33 182.398Q323.343 181.424 323.404 180.452Q323.465 179.481 323.573 178.513Q323.682 177.546 323.837 176.584Q323.992 175.623 324.193 174.671Q324.395 173.718 324.643 172.777Q324.891 171.835 325.184 170.907Q325.478 169.978 325.816 169.065Q326.154 168.152 326.536 167.257Q326.919 166.361 327.344 165.486Q327.769 164.61 328.237 163.756C333.94 153.515 345.258 145.731 356.414 142.677Q357.51 142.375 358.619 142.127Q359.728 141.878 360.848 141.685Q361.967 141.492 363.096 141.354Q364.224 141.216 365.357 141.133Q366.49 141.051 367.627 141.024Q368.763 140.998 369.899 141.027Q371.035 141.056 372.168 141.141Q373.301 141.226 374.429 141.367Q375.557 141.508 376.676 141.703Q377.796 141.899 378.904 142.15Q380.013 142.401 381.108 142.706Q382.202 143.011 383.281 143.369Q384.359 143.727 385.419 144.138Q386.479 144.549 387.517 145.011Q388.555 145.474 389.569 145.987Q390.583 146.5 391.571 147.062C401.386 152.736 408.714 161.773 411.536 172.825Q411.774 173.788 411.966 174.762Q412.157 175.736 412.3 176.718Q412.444 177.7 412.539 178.688Q412.635 179.676 412.682 180.667Q412.729 181.658 412.728 182.65Q412.727 183.643 412.677 184.634Q412.628 185.625 412.53 186.613Q412.432 187.6 412.287 188.582Q412.141 189.564 411.947 190.537Q411.754 191.51 411.513 192.473Q411.273 193.436 410.986 194.386Q410.699 195.336 410.365 196.271Q410.032 197.205 409.654 198.123Q409.276 199.04 408.853 199.938Q408.431 200.836 407.965 201.712Q407.499 202.589 406.991 203.441C400.9 213.704 390.522 220.944 379.025 223.814C372.993 225.319 366.63 225.798 360.53 224.398C355.404 223.65 350.935 222.087 346.326 219.772ZM357.408 167.827C355.101 173.808 354.716 192.027 356.982 197.933C357.472 199.211 357.711 199.465 358.953 199.946C364.631 199.556 370.765 194.573 375.401 191.554C379.206 189.31 383.128 187.201 386.223 183.989C380.927 177.943 365.442 168.574 357.408 167.827Z"/>
	<path fill="#2F2D2E" d="M346.326 219.772C349.095 218.577 351.132 219.256 353.888 220.34C356.113 221.214 359.043 222.512 360.53 224.398C355.404 223.65 350.935 222.087 346.326 219.772Z"/>
	<path fill="#2F2D2E" d="M330.09 309.771L331.782 310.75C325.744 321.233 322.844 332.237 326.078 344.237C328.41 352.886 334.094 360.342 340.94 365.976L339.731 367.863C331.307 360.568 325.465 352.465 323.363 341.283C321.271 330.157 323.712 319.076 330.09 309.771Z"/>
	<path fill="#181617" d="M417.125 269.065C425.073 269.068 461.243 267.828 466.155 271.2C467.808 273.951 467.267 279.19 467.299 282.377C467.275 283.913 467.517 285.868 466.694 287.205L465.673 287.323C465.648 283.313 466.434 275.997 464.534 272.59C459.303 270.305 420.175 271.303 411.173 271.296C412.606 270.601 414.52 270.741 416.114 270.4L415.873 270.425C414.908 269.648 413.448 269.829 412.261 269.802C412.806 269.295 416.21 269.168 417.125 269.065Z"/>
	<path fill="#3B3839" d="M340.94 365.976C348.051 371.39 357.501 374.709 366.38 375.127Q367.469 375.167 368.559 375.156Q369.648 375.144 370.736 375.079Q371.824 375.015 372.908 374.898Q373.991 374.781 375.068 374.613Q376.145 374.444 377.212 374.224Q378.279 374.004 379.335 373.732Q380.39 373.461 381.432 373.139Q382.473 372.817 383.497 372.446Q384.522 372.074 385.527 371.654Q386.533 371.233 387.517 370.765Q388.501 370.297 389.461 369.782Q390.422 369.266 391.356 368.706Q392.291 368.145 393.197 367.54Q394.104 366.935 394.98 366.287Q395.857 365.639 396.701 364.95Q397.545 364.26 398.355 363.531L399.944 365.144C393.24 372.707 380.55 376.365 370.711 376.973C359.815 377.646 348.085 375.174 339.731 367.863L340.94 365.976Z"/>
	<path fill="#3F3D40" d="M330.09 309.771C336.833 299.944 345.609 293.748 357.357 291.1C369.131 288.446 381.744 289.885 392.023 296.413L389.833 297.592C378.159 292.134 365.922 289.94 353.469 294.39Q351.848 294.978 350.276 295.685Q348.704 296.392 347.188 297.215Q345.673 298.037 344.223 298.97Q342.773 299.903 341.397 300.941Q340.021 301.979 338.725 303.117Q337.43 304.255 336.223 305.486Q335.016 306.718 333.905 308.035Q332.793 309.353 331.782 310.75L330.09 309.771Z"/>
	<path fill="#2F2D2E" d="M389.833 297.592L392.023 296.413C402.051 302.431 409.384 311.37 412.303 322.816Q412.566 323.876 412.776 324.948Q412.986 326.02 413.143 327.101Q413.3 328.182 413.403 329.269Q413.506 330.357 413.555 331.448Q413.604 332.539 413.598 333.631Q413.593 334.724 413.534 335.814Q413.475 336.905 413.362 337.991Q413.248 339.078 413.081 340.157Q412.915 341.237 412.694 342.307Q412.474 343.376 412.201 344.434Q411.928 345.492 411.603 346.534Q411.278 347.577 410.902 348.603Q410.526 349.628 410.099 350.633Q409.673 351.639 409.197 352.622Q408.721 353.605 408.197 354.564Q407.673 355.522 407.102 356.453C405.19 359.606 402.782 362.763 399.944 365.144L398.355 363.531C400.602 361.155 402.723 358.604 404.517 355.863Q405.079 355.018 405.599 354.146Q406.118 353.274 406.593 352.377Q407.068 351.48 407.497 350.56Q407.927 349.64 408.31 348.7Q408.693 347.76 409.028 346.802Q409.364 345.844 409.651 344.87Q409.938 343.897 410.176 342.91Q410.413 341.923 410.602 340.925Q410.79 339.928 410.928 338.922Q411.066 337.916 411.153 336.905Q411.241 335.894 411.278 334.879Q411.314 333.865 411.3 332.85Q411.286 331.835 411.221 330.822Q411.156 329.809 411.041 328.8Q410.925 327.792 410.76 326.79Q410.594 325.789 410.378 324.797C407.777 312.511 400.006 304.291 389.833 297.592Z"/>
	<path fill="#2F2D2E" d="M271.391 270.248C280.136 267.739 291.321 269.05 300.375 269.174Q311.55 269.269 322.725 269.249L417.125 269.065C416.21 269.168 412.806 269.295 412.261 269.802C413.448 269.829 414.908 269.648 415.873 270.425L416.114 270.4C414.52 270.741 412.606 270.601 411.173 271.296C398.903 272.389 385.984 271.56 373.64 271.561L301.57 271.609C294.886 271.608 277.479 270.576 272.246 271.955L271.391 270.248Z"/>
	<path fill="#3F3D40" d="M354.966 312.469C361.571 314.057 386.102 327.9 389.493 333.057C389.865 333.622 390.158 334.225 389.933 334.893C388.877 338.025 379.713 342.055 376.827 343.586C371.367 346.8 364.786 351.457 358.547 352.878C356.745 353.289 355.282 353.298 353.681 352.283C350.337 347.611 350.693 325.945 351.344 319.989C351.733 316.429 352.099 314.749 354.966 312.469Z"/>
</svg>
