<?xml version="1.0" encoding="utf-8" ?>
<svg xmlns="http://www.w3.org/2000/svg" xmlns:xlink="http://www.w3.org/1999/xlink" width="1015" height="597">
	<path fill="#6B728C" d="M932.625 394.089C939.157 394.038 966.287 395.358 970.133 392.696C970.998 392.097 970.985 391.886 971.188 390.864C971.566 391.508 971.973 392.102 972.186 392.821C972.148 393.635 972.308 394.056 971.661 394.621C970.566 395.577 969.026 395.85 967.62 395.993C962.754 396.487 957.539 395.987 952.647 395.89Q941.398 395.73 930.149 395.705C929.223 395.248 927.663 395.1 926.632 394.849L925.919 395.357L925.084 394.584L925.662 394.076L926.107 394.117L926.104 394.853C927.689 394.984 930.604 394.76 932.12 394.265C932.29 394.209 932.457 394.148 932.625 394.089Z"/>
	<path fill="#565D76" d="M134.224 494.075C151.423 494.117 169.974 492.21 186.985 494.134C188.999 495.356 194.592 494.865 197.27 495.532C183.901 496.294 170.185 495.709 156.773 495.782C146.267 495.838 135.029 496.964 124.655 495.505C127.933 495.139 131.274 495.873 134.224 494.075Z"/>
	<path fill="#6B728C" d="M94.4121 464.357L96.9937 472.775C100.839 481.093 107.508 488.339 116.236 491.543C121.848 493.603 128.285 493.984 134.224 494.075C131.274 495.873 127.933 495.139 124.655 495.505C121.435 495.393 118.508 494.93 115.461 493.854C105.742 490.422 99.1563 482.767 94.8995 473.687C93.8833 471.069 93.1258 468.477 92.4326 465.763L93.7309 465.557L94.4121 464.357Z"/>
	<path fill="#717EA1" d="M91.6097 172.553C91.6559 172.437 91.706 172.323 91.7482 172.205C93.9315 166.13 91.3164 144.117 92.6152 135.769C92.7048 142.612 91.8972 170.638 93.5767 175.199C94.0424 199.404 93.6698 223.684 93.6629 247.897L93.6873 378.024L93.6835 430.039C93.6629 441.356 93.0424 453.117 94.4121 464.357L93.7309 465.557L92.4326 465.763C89.7577 452.058 91.3609 436.701 91.4092 422.752L91.3328 357.27L91.377 234.457L91.391 195.829C91.3877 188.107 91.1222 180.26 91.6097 172.553Z"/>
	<path fill="#565D76" d="M912.845 428.373C913.319 427.81 913.645 427.224 914.013 426.59L913.982 427.64C915.988 431.492 915.161 456.104 914.656 461.338Q914.267 465.755 912.949 469.988C909.91 479.594 902.794 487.248 893.867 491.75C892.012 492.685 890.096 493.256 888.092 493.77C919.428 494.63 950.895 494.066 982.243 494.055C987.853 494.053 1010.86 493.099 1014.61 494.406L1014.58 495.459C1010 496.522 994.819 495.463 988.864 495.431Q965.491 495.407 942.121 495.723L642.895 495.814L471.226 495.827L420.758 495.848C411.808 495.858 402.271 496.514 393.397 495.495C393.861 495 394.419 494.566 394.931 494.118C408.748 493.395 422.886 493.981 436.728 493.979L517.722 493.972L764.832 493.967L833.991 493.999C848.31 494.059 862.857 494.765 877.143 493.751C882.318 493.384 887.539 492.572 892.247 490.291C901.409 485.852 908.028 478.36 911.29 468.703Q912.725 464.444 913.174 459.973C913.588 455.721 913.964 430.593 912.845 428.373Z"/>
	<path fill="#292E4C" d="M403.862 443.906C408.468 453.855 408.111 463.428 404.408 473.575C403.212 476.852 394.606 492.77 394.931 494.118C394.419 494.566 393.861 495 393.397 495.495C389.277 502.386 385.333 509.42 380.999 516.177C375.127 525.331 368.767 534.181 362.699 543.206C356.505 552.421 350.608 561.756 343.92 570.636L350.955 576.293C355.603 579.382 360.336 583.039 364.435 586.819C353.364 588.467 341.347 587.576 330.163 587.253C331.371 582.956 332.639 578.714 334.102 574.496C336.145 566.514 341.524 558.64 345.094 551.188C353.742 533.138 362.702 514.856 369.427 495.988C357.793 494.523 345.256 495.471 333.52 495.548C318.26 514.89 299.235 531.34 280.136 546.735C274.398 551.36 268.717 556.208 262.713 560.479C263.856 564.226 269.261 585.871 267.954 588.599C267.791 588.591 267.627 588.592 267.465 588.573C264.324 588.205 247.872 569.643 245.134 566.358C250.357 559.682 258.218 552.717 264.225 546.379C279.049 530.739 292.418 514.259 303.129 495.494L304.3 493.483C308.611 487.334 311.835 479.909 313.597 472.628C314.178 470.378 314.567 468.19 314.847 465.882C321.143 463.048 346.613 455.464 352.982 455.246C358.879 452.808 364.714 451.304 370.989 450.178Q372.773 452.972 374.52 455.789Q375.456 455.812 376.392 455.775C383.491 455.485 399.051 449.141 403.862 443.906ZM352.982 455.246C352.946 457.556 352.865 459.715 352.373 461.977C347.872 473.547 342.053 483.71 335.033 493.892L370.116 493.958C375.457 482.638 378.778 467.918 374.52 455.789Q372.773 452.972 370.989 450.178C364.714 451.304 358.879 452.808 352.982 455.246ZM261.544 552.741C260.258 554.007 258.899 555.179 259.027 557.165C259.075 557.903 259.152 558.619 259.58 559.232C260.487 559.332 261.012 559.226 261.89 558.973C263.168 557.98 264.242 557.564 264.613 555.942C263.753 554.693 262.66 553.749 261.544 552.741ZM339.386 566.927C338.485 568.406 337.225 569.917 337.416 571.712C338.329 572.603 338.635 572.659 339.891 572.97C340.845 571.707 341.8 570.691 341.877 569.043C341.194 567.865 340.713 567.451 339.386 566.927Z"/>
	<path fill="#5289D3" d="M335.215 576.715C335.628 575.471 335.713 574.381 336.851 573.652L337.244 573.89C338.509 574.641 339.29 574.927 340.809 574.818C341.742 574.379 342.466 573.939 343.265 573.286C345.699 573.567 348.414 576.18 350.37 577.666Q355.442 581.624 360.468 585.64C351.01 585.697 341.544 585.531 332.086 585.451L335.215 576.715Z"/>
	<path fill="#5289D3" d="M256.371 557.706C256.764 557.918 256.881 557.964 257.22 558.2C264.308 563.133 265.533 578.144 266.873 585.976L261.847 581.096Q254.218 573.876 246.728 566.511Q251.598 562.162 256.371 557.706Z"/>
	<path fill="#1A1E34" d="M314.847 465.882C321.143 463.048 346.613 455.464 352.982 455.246C352.946 457.556 352.865 459.715 352.373 461.977C342.623 464.818 322.702 472.644 313.597 472.628C314.178 470.378 314.567 468.19 314.847 465.882Z"/>
	<path fill="#4D5777" d="M846.9 31.1187C851.614 31.1075 856.297 30.9007 860.127 34.0544L860.349 34.6129C859.821 35.0892 859.271 35.5319 858.878 36.1315C856.368 33.275 850.964 33.392 847.495 33.1382C846.816 31.9785 843.77 32.2902 842.378 31.5191C843.924 31.4829 845.37 31.3713 846.9 31.1187Z"/>
	<path fill="#565D76" d="M725.949 69.0254C730.968 68.9312 735.587 68.8103 740.448 67.3548C740.771 67.8449 741.203 68.2888 741.233 68.8796C739.75 70.5415 737.557 70.6471 735.421 70.784C732.133 70.9949 728.758 70.8111 725.464 70.7434C724.913 70.4695 724.387 70.1459 723.854 69.8374C724.529 69.4636 725.218 69.2538 725.949 69.0254Z"/>
	<path fill="#6B728C" d="M858.878 36.1315C859.271 35.5319 859.821 35.0892 860.349 34.6129C863.876 36.0286 866.119 39.1296 867.556 42.546C869.643 47.5059 870.016 53.7081 867.939 58.7344C867.006 60.993 865.437 63.2071 863.225 64.3374L861.909 63.459C863.26 62.3945 864.172 61.2181 865.027 59.7317C867.363 55.6686 867.686 50.722 866.462 46.2471C865.295 41.9817 862.764 38.3096 858.878 36.1315Z"/>
	<path fill="#4D5777" d="M786.015 31.634C795.846 29.8929 810.41 31.2786 820.726 31.2013C829.012 31.1392 838.764 29.8289 846.9 31.1187C845.37 31.3713 843.924 31.4829 842.378 31.5191C843.77 32.2902 846.816 31.9785 847.495 33.1382C827.96 34.4508 807.23 32.0011 787.639 33.2581C788.254 32.8728 788.726 32.4879 789.24 31.9752L786.015 31.634Z"/>
	<path fill="#4D5777" d="M785.613 70.4073C782.547 70.4034 779.647 69.0511 777.244 67.2376C773.026 64.0527 770.497 59.2061 769.827 54.0115C769.101 48.379 770.088 42.6586 773.692 38.1468C776.808 34.246 781.108 32.1715 786.015 31.634L789.24 31.9752C788.726 32.4879 788.254 32.8728 787.639 33.2581C782.677 34.2815 776.498 36.4398 773.621 40.9533C770.848 45.3019 773.845 52.9041 771.627 57.5811C777.947 61.7078 777.732 66.163 786.382 68.4469C786.158 69.134 785.939 69.7592 785.613 70.4073Z"/>
	<path fill="#4D5777" d="M452.2 68.9465Q478.939 68.3137 505.682 68.7176C512.406 68.7549 520.009 68.0137 526.621 68.8795C529.334 70.8771 532.001 69.7033 535.048 70.6411L451.207 70.7194C452.698 70.2864 454.356 70.1977 455.897 70.0042C454.843 69.3406 453.411 69.1969 452.2 68.9465Z"/>
	<path fill="#565D76" d="M861.909 63.459L863.225 64.3374C862.885 66.0321 861.736 67.2046 860.33 68.1307C858.339 69.4423 855.93 70.1782 853.579 70.4767C840.421 72.1471 826.242 70.9041 812.949 70.8727C804.222 70.8521 794.15 72.1405 785.613 70.4073C785.939 69.7592 786.158 69.134 786.382 68.4469C801.123 67.8657 816.027 68.3375 830.787 68.3898C837.627 68.4141 844.768 68.9053 851.545 68.0174C855.379 67.5149 859.425 66.6936 861.909 63.459Z"/>
	<path fill="#4D5777" d="M104.317 93.7135L181.554 93.9614C196.001 94.0058 210.574 93.639 225.004 94.1602C224.333 94.8019 224.218 94.8389 224.055 95.7384C217.382 97.1805 191.006 95.8858 182.659 95.8097Q143.134 95.4775 103.608 95.7436L104.317 93.7135Z"/>
	<path fill="#4D5777" d="M225.004 94.1602C249.393 92.8338 274.103 93.8071 298.543 93.8053L342.285 93.8464C350.731 93.8339 359.199 93.481 367.637 93.8681C367.466 93.9098 367.295 93.9544 367.123 93.9933C364.929 94.4892 362.361 94.2277 360.067 94.5587L359.393 93.8124L359.598 94.9604L359.321 94.8789C360.773 94.9653 362.031 95.0569 363.414 95.5732C347.967 96.0622 332.407 95.7167 316.951 95.715L224.055 95.7384C224.218 94.8389 224.333 94.8019 225.004 94.1602Z"/>
	<path fill="#565D76" d="M589.296 68.8786C615.267 68.2048 641.255 68.8648 667.235 68.7903C686.663 68.7346 706.564 67.5817 725.949 69.0254C725.218 69.2538 724.529 69.4636 723.854 69.8374C724.387 70.1459 724.913 70.4695 725.464 70.7434C718.457 70.9943 711.415 70.6217 704.402 70.6215L658.717 70.5926C634.917 70.4145 611.08 70.7773 587.275 70.7832C588.133 70.5169 588.744 70.2544 589.476 69.7284L589.296 68.8786Z"/>
	<path fill="#5289D3" d="M212.521 37.231C214.613 37.0751 216.853 36.9645 218.881 37.58Q219.533 37.7718 220.161 38.0289Q220.79 38.2861 221.39 38.6058Q221.989 38.9256 222.552 39.3047Q223.116 39.6838 223.638 40.1183Q224.16 40.5527 224.635 41.0381Q225.111 41.5234 225.534 42.0546Q225.957 42.5858 226.324 43.1573Q226.691 43.7287 226.998 44.3346Q227.302 44.9411 227.544 45.5748Q227.786 46.2085 227.964 46.8632Q228.142 47.5179 228.253 48.187Q228.365 48.8561 228.409 49.5331Q228.453 50.21 228.43 50.8879Q228.406 51.5659 228.315 52.2381Q228.224 52.9104 228.067 53.5702Q227.909 54.23 227.687 54.8709C226.048 59.4879 222.786 61.7755 218.554 63.8357C215.873 64.1934 213.342 64.237 210.787 63.2164Q210.181 62.9778 209.601 62.6791Q209.022 62.3805 208.476 62.0249Q207.93 61.6693 207.422 61.2604Q206.915 60.8515 206.452 60.3935Q205.988 59.9354 205.573 59.4329Q205.158 58.9304 204.796 58.3886Q204.434 57.8468 204.129 57.2712Q203.824 56.6957 203.578 56.0922Q203.319 55.4528 203.125 54.7911Q202.93 54.1293 202.801 53.4516Q202.673 52.7739 202.612 52.0869Q202.551 51.3998 202.558 50.7101Q202.565 50.0203 202.639 49.3346Q202.714 48.6489 202.856 47.9739Q202.998 47.2989 203.206 46.6412Q203.413 45.9834 203.685 45.3493C205.396 41.3292 208.553 38.8327 212.521 37.231Z"/>
	<path fill="#5289D3" d="M155.71 37.2698C157.893 37.0556 160.43 36.9712 162.552 37.5836Q163.177 37.7601 163.781 37.9974Q164.385 38.2347 164.963 38.5306Q165.54 38.8264 166.086 39.1778Q166.632 39.5292 167.14 39.9328Q167.649 40.3363 168.114 40.7881Q168.58 41.2399 168.999 41.7355Q169.419 42.2311 169.787 42.7656Q170.155 43.3001 170.468 43.8684Q170.789 44.4683 171.05 45.0969Q171.31 45.7255 171.507 46.3768Q171.704 47.0281 171.836 47.6956Q171.968 48.3632 172.034 49.0405Q172.099 49.7177 172.097 50.3982Q172.095 51.0786 172.026 51.7555Q171.957 52.4324 171.821 53.0992Q171.686 53.766 171.485 54.4162C169.954 59.3461 166.513 61.9713 162.105 64.2442Q161.232 64.4119 160.344 64.4688Q159.457 64.5257 158.57 64.4708Q157.682 64.4159 156.808 64.2501Q155.935 64.0843 155.089 63.8102Q154.491 63.6196 153.915 63.3699Q153.339 63.1202 152.791 62.8138Q152.243 62.5074 151.728 62.1474Q151.214 61.7875 150.738 61.3776Q150.262 60.9678 149.831 60.5122Q149.399 60.0566 149.015 59.5599Q148.631 59.0632 148.299 58.5304Q147.967 57.9977 147.69 57.4342C145.988 54.0417 145.635 49.8774 146.857 46.2715C148.412 41.6846 151.474 39.2902 155.71 37.2698Z"/>
	<path fill="#6B728C" d="M428.053 33.8354C431.315 32.3121 434.363 31.5341 437.963 31.3512C452.89 30.5931 468.095 31.2255 483.05 31.234L569.068 31.2536L673.987 31.1972C691.554 31.1871 709.259 30.6421 726.809 31.22C731.334 31.369 736.679 31.4295 740.96 33.004C745.514 34.6792 749.062 38.2888 751.026 42.6863Q751.247 43.1702 751.443 43.6648Q751.638 44.1594 751.808 44.6634Q751.978 45.1673 752.122 45.6793Q752.266 46.1913 752.384 46.7101Q752.501 47.2288 752.592 47.7528Q752.683 48.2769 752.747 48.8049Q752.811 49.3329 752.848 49.8635Q752.884 50.3941 752.894 50.9258Q752.903 51.4576 752.886 51.9892Q752.868 52.5207 752.823 53.0507Q752.778 53.5807 752.706 54.1076Q752.634 54.6346 752.535 55.1572Q752.436 55.6797 752.31 56.1966Q752.185 56.7134 752.033 57.2231Q751.881 57.7328 751.703 58.2341Q751.525 58.7354 751.322 59.2269C749.82 62.9282 746.994 66.65 743.243 68.2859C742.584 68.5733 741.94 68.763 741.233 68.8796C741.203 68.2888 740.771 67.8449 740.448 67.3548C743.327 66.1942 745.785 64.1187 747.577 61.5918C750.264 57.8028 750.985 52.5002 750.231 47.9919C749.461 43.3928 747.035 39.1705 743.16 36.5072C739.893 34.2618 736.094 33.8098 732.205 33.6263C724.751 33.2744 717.126 33.6426 709.657 33.6755L671.285 33.6601L542.512 33.6717L476.199 33.6538C461.755 33.5859 445.61 32.1512 431.471 34.742C426.795 36.9099 423.009 39.9687 421.132 44.91C419.532 49.1201 419.817 53.1966 420.949 57.4616C423.247 62.2341 426.072 65.816 431.227 67.6143C437.927 69.9513 445.271 68.6078 452.2 68.9465C453.411 69.1969 454.843 69.3406 455.897 70.0042C454.356 70.1977 452.698 70.2864 451.207 70.7194C444.707 70.8497 436.714 71.8042 430.447 69.9796C425.022 68.4001 422.007 64.7117 419.407 59.9291Q419.06 59.1062 418.782 58.2577Q418.504 57.4092 418.296 56.5409Q418.088 55.6725 417.952 54.79Q417.816 53.9075 417.752 53.0168Q417.689 52.1261 417.698 51.2333Q417.708 50.3404 417.79 49.4513Q417.873 48.5622 418.028 47.6829Q418.183 46.8035 418.41 45.9398C419.866 40.3885 423.168 36.6841 428.053 33.8354Z"/>
	<path fill="#5289D3" d="M789.038 38.3957C799.012 37.9005 809.006 38.561 818.984 38.4972C829.928 38.4272 841.641 37.1137 852.468 38.8343C854.489 39.1553 856.329 39.8722 857.918 41.1809C860.46 43.276 861.935 46.5643 862.218 49.8087C862.514 53.1967 861.518 56.7122 859.236 59.2727C856.363 62.4962 852.565 62.8381 848.488 63.0322Q847.842 63.115 847.193 63.1724C840 63.8317 832.421 62.9904 825.178 62.9962C817.075 63.0026 787.171 65.5375 781.351 60.5416C778.671 58.2417 776.752 54.4725 776.494 50.9493C776.281 48.0354 777.845 44.5884 779.723 42.4207C782.286 39.4634 785.283 38.7158 789.038 38.3957Z"/>
	<path fill="#6B728C" d="M100.069 20.6547C100.196 20.4582 100.319 20.2588 100.458 20.0706C106.2 12.2967 115.272 8.00653 124.678 6.7493C134.954 5.376 145.643 6.04281 155.999 6.04619L207.408 6.02201L389.122 6.13307L713.855 6.01056L818.665 5.97953C838.6 5.9743 858.709 5.42237 878.62 6.28204C881.867 6.42224 886.824 6.36418 889.457 8.38292C895.758 9.16957 903.103 15.3394 906.802 20.1533C911.104 25.7511 913.691 31.8528 914.747 38.8071C916.48 50.2239 915.828 62.3068 915.823 73.8403L915.752 127.5L915.881 176.83C915.855 184.301 916.44 192.526 915.455 199.897C915.34 200.751 915.157 201.381 914.765 202.146L914.558 202.751C913.496 203.181 913.045 203.017 911.929 202.861L911.66 202.271C912.004 202.113 912.228 202.03 912.542 201.79C913.146 201.33 913.219 200.803 913.337 200.099C915.012 190.086 913.511 172.783 913.507 161.952C913.499 140.928 914.707 119.696 913.461 98.6892C913.389 97.4874 913.211 96.6477 912.509 95.6407C894.994 95.0813 877.254 95.5543 859.723 95.6781Q817.141 96.0841 774.556 96.0344L472.01 95.6281C435.826 95.4864 399.591 96.2297 363.414 95.5732C362.031 95.0569 360.773 94.9653 359.321 94.8789L359.598 94.9604L359.393 93.8124L360.067 94.5587C362.361 94.2277 364.929 94.4892 367.123 93.9933C367.295 93.9544 367.466 93.9098 367.637 93.8681C384.881 93.019 401.972 93.9106 419.213 93.9269L510.783 93.5496L912.481 93.0443C912.796 92.4727 913.124 91.8989 913.272 91.2553C914.457 86.0923 913.657 44.5116 912.539 38.3698C911.61 33.2633 909.8 28.382 906.95 24.0271C901.239 15.3022 892.395 10.9863 882.453 8.98499C868.859 7.54177 854.722 8.44596 841.063 8.54258L784.149 8.48746L576.011 8.60702L277.967 8.72201L181.091 8.72401C164.15 8.72929 146.833 8.05684 129.929 8.97688C121.702 9.42466 114.033 11.5342 107.502 16.7684C106.443 17.6171 105.435 18.5346 104.437 19.4542C100.713 23.6864 97.7106 27.9099 95.9481 33.3513C92.0188 45.4824 93.666 79.0921 93.704 93.6023L104.317 93.7135L103.608 95.7436L93.5751 96.0982C93.6048 122.405 94.3072 148.915 93.5767 175.199C91.8972 170.638 92.7048 142.612 92.6152 135.769C91.3164 144.117 93.9315 166.13 91.7482 172.205C91.706 172.323 91.6559 172.437 91.6097 172.553C91.1991 162.593 91.4895 152.545 91.5049 142.576L91.5173 91.6026Q91.5252 77.5662 91.3815 63.5305C91.3137 55.5619 90.9195 47.1657 92.1413 39.2762C93.177 32.5885 95.7713 25.9203 100.069 20.6547Z"/>
	<path fill="#565D76" d="M526.621 68.8795C537.403 68.717 548.206 68.3902 558.987 68.4479C569.093 68.502 579.19 68.9298 589.296 68.8786L589.476 69.7284C588.744 70.2544 588.133 70.5169 587.275 70.7832L535.048 70.6411C532.001 69.7033 529.334 70.8771 526.621 68.8795Z"/>
	<path fill="#565D76" d="M369.198 337.263C369.253 337.353 369.31 337.442 369.364 337.533C370.877 340.087 371.452 344.896 374.65 345.868C375.597 346.156 376.733 346.251 377.713 346.131C381.613 347.19 385.7 346.992 389.44 347.951C384.478 348.975 378.96 347.899 374.156 349.023L372.76 350.078C371.199 345.999 370.152 341.525 369.198 337.263Z"/>
	<path fill="#4D5777" d="M377.713 346.131C386.415 345.574 395.016 344.503 403.64 343.254L404.558 345.573C399.638 346.721 394.525 348.001 389.44 347.951C385.7 346.992 381.613 347.19 377.713 346.131Z"/>
	<path fill="#565D76" d="M347.97 265.388C352.024 272.099 355.047 279.851 353.077 287.79C352.622 289.624 351.73 291.477 350.766 293.1C345.444 294.629 340.67 295.441 335.373 293.157C334.775 292.1 334.281 290.976 333.755 289.882Q336.663 291.267 339.757 292.163C342.296 292.885 345.449 292.971 347.763 291.534C349.599 290.395 350.695 288.597 351.22 286.542C352.955 279.749 349.388 271.998 345.961 266.295L347.97 265.388Z"/>
	<path fill="#292E4C" d="M467.402 320.795C477.981 326.02 497.146 330.296 508.823 328.313L510.661 330.138C495.966 332.133 479.15 329.21 465.869 322.706L467.402 320.795Z"/>
	<path fill="#565D76" d="M575.764 187.425C588.946 206.376 591.636 226.238 590.006 248.862C589.529 247.119 589.121 245.436 588.872 243.644C590.999 224.898 583.706 206.816 575.495 190.416L575.764 187.425Z"/>
	<path fill="#6B728C" d="M456.084 320.255L457.196 322.131C440.722 333.371 423.752 340.478 404.558 345.573L403.64 343.254L403.935 343.015C418.497 341.201 443.648 328.798 456.084 320.255Z"/>
	<path fill="#565D76" d="M761.041 238.386C761.611 239.825 761.745 240.82 761.633 242.362C761.076 243.477 761.289 243.556 761.665 244.694C762.503 247.83 762.878 326.77 761.803 331.021C761.273 333.283 761.076 338.243 759.791 339.896C760.678 337.817 760.886 244.276 759.638 238.884L761.041 238.386Z"/>
	<path fill="#4D5777" d="M186.985 494.134C195.864 492.814 205.134 494.015 214.064 493.856C244.137 493.32 274.217 493.49 304.3 493.483L303.129 495.494C267.877 494.546 232.532 496.186 197.27 495.532C194.592 494.865 188.999 495.356 186.985 494.134Z"/>
	<path fill="#4D5777" d="M508.823 328.313C512.718 327.558 516.709 327.437 520.63 326.58C533.793 323.702 546.651 316.546 556.837 307.841C570.792 295.914 582.658 277.63 586.908 259.677C588.137 254.488 588.455 248.948 588.872 243.644C589.121 245.436 589.529 247.119 590.006 248.862C586.723 273.724 576.064 296.413 555.829 311.987C542.195 322.48 527.699 328.369 510.661 330.138L508.823 328.313Z"/>
	<path fill="#292E4C" d="M419.147 205.056C422.548 198.315 425.57 191.76 429.851 185.49L431.158 186.745C422.614 201.405 418.02 211.9 414.961 228.563C413.31 229.24 412.49 229.373 410.7 229.063Q410.984 228.242 411.23 227.41C411.956 224.962 412.928 221.238 411.522 218.877C411.168 218.282 411.053 218.345 410.394 218.203C409.064 219.035 408.727 220.089 408.133 221.467L407.071 219.226C407.426 215.513 408.861 210.805 409.993 207.208C411.106 203.671 412.925 198.286 416.393 196.478C417.129 196.545 417.437 196.431 417.936 196.998C419.659 198.956 419.214 202.6 419.147 205.056ZM416.602 199.059C412.954 203.213 409.059 210.245 409.942 216.026C410.026 216.576 410.288 216.964 410.628 217.392C414.167 215.23 416.018 211.776 416.971 207.784C417.538 205.412 418.007 201.311 416.674 199.168C416.651 199.131 416.626 199.096 416.602 199.059Z"/>
	<path fill="#4D5777" d="M759.66 383.503L760.88 383.043C760.928 383.123 760.979 383.201 761.023 383.283C762.569 386.115 761.067 391.963 764.76 393.222C772.197 395.756 810.676 393.964 820.851 393.949Q876.739 393.739 932.625 394.089C932.457 394.148 932.29 394.209 932.12 394.265C930.604 394.76 927.689 394.984 926.104 394.853L926.107 394.117L925.662 394.076L925.084 394.584L925.919 395.357L926.632 394.849C927.663 395.1 929.223 395.248 930.149 395.705C924.63 395.786 919.173 395.91 913.673 396.445C915.302 398.971 915.333 422.484 914.537 426.2C914.43 426.702 914.212 427.185 913.982 427.64L914.013 426.59C913.645 427.224 913.319 427.81 912.845 428.373C912.995 428.001 913.119 427.632 913.221 427.242C914.251 423.274 913.895 399.352 911.992 396.27C905.582 394.88 889.366 395.778 882.047 395.782C868.401 395.789 766.752 396.993 763.546 395.333C758.803 392.876 761.062 387.891 759.773 383.825C759.738 383.717 759.698 383.61 759.66 383.503Z"/>
	<path fill="#4D5777" d="M429.851 185.49Q432.826 180.656 436.643 176.455C453.547 157.772 475.422 148.022 500.42 146.797C527.751 148.061 548.669 155.534 567.531 176.178C570.7 179.648 573.353 183.395 575.764 187.425L575.495 190.416Q573.663 187.853 571.76 185.342C552.156 159.249 533.561 152.89 502.268 148.439C469.831 152.303 451.578 161.174 431.158 186.745L429.851 185.49Z"/>
	<path fill="#5289D3" d="M370.779 313.602C378.638 316.509 386.489 318.267 394.668 319.97C397.217 327.764 401.922 335.205 403.935 343.015L403.64 343.254C395.016 344.503 386.415 345.574 377.713 346.131C376.733 346.251 375.597 346.156 374.65 345.868C371.452 344.896 370.877 340.087 369.364 337.533C369.31 337.442 369.253 337.353 369.198 337.263C367.897 333.189 366.37 329.318 364.612 325.421C364.244 324.52 363.65 323.345 363.568 322.374C363.376 320.088 369.143 315.322 370.779 313.602Z"/>
	<path fill="#292E4C" d="M318.936 259.55C320.049 255.603 321.143 251.634 322.678 247.825C324.391 243.575 327.214 238.126 331.725 236.296C333.812 235.45 335.957 235.672 337.977 236.546C350.936 242.149 343.786 255.061 347.766 264.893L347.97 265.388L345.961 266.295C349.388 271.998 352.955 279.749 351.22 286.542C350.695 288.597 349.599 290.395 347.763 291.534C345.449 292.971 342.296 292.885 339.757 292.163Q336.663 291.267 333.755 289.882C334.281 290.976 334.775 292.1 335.373 293.157Q337.554 298.232 340.092 303.137L339.691 303.413C330.163 309.859 323.829 309.004 320.801 322.478C320.784 322.554 320.772 322.631 320.758 322.708C303.954 309.53 314.304 309.069 309.854 293.135C308.985 290.023 306.636 287.175 305.203 284.278C303.486 280.807 303.136 277.112 304.384 273.423C306.733 266.479 312.66 262.558 318.936 259.55ZM331.004 285.626C331.836 286.825 333.338 288.529 333.755 289.882Q336.663 291.267 339.757 292.163C342.296 292.885 345.449 292.971 347.763 291.534C349.599 290.395 350.695 288.597 351.22 286.542C352.955 279.749 349.388 271.998 345.961 266.295C343.882 264.278 340.236 261.239 337.164 261.308C336.086 261.332 335.3 261.728 334.584 262.523C331.378 266.082 331.847 272.206 332.213 276.599C329.258 275.461 328.274 273.279 324.602 273.69C323.46 274.336 322.876 274.606 322.516 275.984C322.062 277.725 323.064 280.076 324.067 281.49C325.825 283.969 328.317 284.596 331.004 285.626Z"/>
	<path fill="#6B728C" d="M372.76 350.078L374.156 349.023C377.2 360.578 381.031 371.986 384.442 383.443C387.747 394.545 390.663 405.792 394.257 416.802L392.963 419.689C386.888 396.298 378.171 373.712 372.76 350.078Z"/>
	<path fill="#4D5777" d="M340.092 303.137L340.378 303.269L340.994 305.528C337.513 307.729 333.71 309.56 330.363 311.94C322.917 317.235 321.198 327.837 319.315 336.182C314.948 355.532 312.844 376.458 312.64 396.296C312.083 396.565 311.904 396.41 311.314 396.294C310.898 371.007 314.695 347.168 320.758 322.708C320.772 322.631 320.784 322.554 320.801 322.478C323.829 309.004 330.163 309.859 339.691 303.413L340.092 303.137Z"/>
	<path fill="#6B728C" d="M407.071 219.226L408.133 221.467C403.592 231.099 398.813 240.753 393.213 249.817C381.184 269.285 360.651 294.149 340.994 305.528L340.378 303.269C344.017 300.906 349.045 298.421 350.238 294.086C350.764 293.935 351.286 293.778 351.801 293.595C357.67 291.509 362.555 285.507 366.581 280.975Q372.71 274.026 378.329 266.659Q383.948 259.292 389.029 251.544Q394.109 243.796 398.626 235.706Q403.142 227.616 407.071 219.226Z"/>
	<path fill="#565D76" d="M311.314 396.294C311.904 396.41 312.083 396.565 312.64 396.296C312.743 405.849 314.064 456.797 316.291 462.661C316.861 462.997 317.173 463.072 317.832 463.088C323.129 459.898 340.361 456.172 346.898 454.371Q372.906 447.053 398.996 440.031Q396.27 429.774 392.963 419.689L394.257 416.802C396.786 424.905 398.939 433.569 402.367 441.323L403.862 443.906C399.051 449.141 383.491 455.485 376.392 455.775Q375.456 455.812 374.52 455.789Q372.773 452.972 370.989 450.178C364.714 451.304 358.879 452.808 352.982 455.246C346.613 455.464 321.143 463.048 314.847 465.882L314.587 465.082C311.598 460.374 311.288 406.145 311.314 396.294Z"/>
	<path fill="#1A1E34" d="M402.367 441.323L403.862 443.906C399.051 449.141 383.491 455.485 376.392 455.775Q375.456 455.812 374.52 455.789Q372.773 452.972 370.989 450.178Q386.872 446.438 402.367 441.323Z"/>
	<path fill="#565D76" d="M346.198 334.488C352.1 329.155 358.419 323.971 363.84 318.153C385.218 295.214 399.717 265.518 408.962 235.791L410.946 236.194C402.025 266.407 390.967 286.821 372.071 311.801C396.66 319.577 423.162 320.683 447.814 312.356L448.941 314.779C430.674 320.178 413.63 321.034 394.668 319.97C386.489 318.267 378.638 316.509 370.779 313.602C369.143 315.322 363.376 320.088 363.568 322.374C363.65 323.345 364.244 324.52 364.612 325.421L362.907 323.408C362.62 323.352 362.333 323.182 362.047 323.241C361.37 323.38 358.483 326.178 357.75 326.777C354.003 329.839 350.582 332.377 346.198 334.488Z"/>
	<path fill="#5289D3" d="M502.268 148.439C533.561 152.89 552.156 159.249 571.76 185.342Q573.663 187.853 575.495 190.416C583.706 206.816 590.999 224.898 588.872 243.644C588.455 248.948 588.137 254.488 586.908 259.677C582.658 277.63 570.792 295.914 556.837 307.841C546.651 316.546 533.793 323.702 520.63 326.58C516.709 327.437 512.718 327.558 508.823 328.313C497.146 330.296 477.981 326.02 467.402 320.795L465.869 322.706C464.597 322.007 463.251 321.196 461.848 320.798C459.978 320.269 458.724 321.201 457.196 322.131L456.084 320.255C460.168 317.204 468.327 312.952 471.114 309.058C471.388 308.676 471.242 308.511 471.171 308.069C465.925 306.377 454.013 312.824 448.941 314.779L447.814 312.356C447.516 312.161 447.245 311.956 446.98 311.72C431.938 298.298 419.277 281.257 414.852 261.23C412.974 252.727 412.484 244.178 411.976 235.516L411.756 235.91L411.757 234.072L411.872 234.127C411.174 234.873 411.07 235.18 410.946 236.194L408.962 235.791L410.7 229.063C412.49 229.373 413.31 229.24 414.961 228.563C418.02 211.9 422.614 201.405 431.158 186.745C451.578 161.174 469.831 152.303 502.268 148.439ZM481.757 260.774C482.249 263.08 481.146 269.518 482.622 270.845L482.758 277.922C501.065 265.65 517.769 251.314 536.321 239.317C518.667 226.896 502.134 212.994 484.575 200.49L487.382 199.387C485.646 198.05 483.997 196.568 481.795 196.114L481.172 196.549C480.494 204.702 481.569 212.886 481.626 221.059C481.718 234.213 480.969 247.668 481.757 260.774ZM414.961 228.563C413.31 229.24 412.49 229.373 410.7 229.063L408.962 235.791L410.946 236.194C411.07 235.18 411.174 234.873 411.872 234.127L411.757 234.072L411.756 235.91L411.976 235.516C412.484 244.178 412.974 252.727 414.852 261.23C419.277 281.257 431.938 298.298 446.98 311.72C447.245 311.956 447.516 312.161 447.814 312.356L448.941 314.779C454.013 312.824 465.925 306.377 471.171 308.069C471.242 308.511 471.388 308.676 471.114 309.058C468.327 312.952 460.168 317.204 456.084 320.255L457.196 322.131C458.724 321.201 459.978 320.269 461.848 320.798C463.251 321.196 464.597 322.007 465.869 322.706L467.402 320.795L462.333 319.309C468.098 313.106 476.176 309.492 482.215 303.496C484.117 301.609 486.809 298.924 486.802 296.055C486.423 295.334 486.358 295.017 485.61 294.627C478.455 290.896 470.463 302.979 465.043 306.084C460.588 308.637 455.29 310.12 450.436 311.772C446.165 307.709 441.784 303.692 437.782 299.364C419.641 279.744 413.958 254.524 414.961 228.563Z"/>
	<path fill="#292E4C" d="M539.891 175.647C545.847 176.309 553.666 185.343 557.427 189.714C567.874 201.86 575.468 221.453 574.232 237.531C571.176 235.653 570.06 219.838 568.859 215.789C567.571 211.445 565.408 206.944 563.214 202.982C559.627 196.503 554.638 190.322 549.371 185.137C546.097 181.913 542.171 179.783 539.891 175.647Z"/>
	<path fill="#4D5777" d="M487.382 199.387Q504.09 212.262 520.97 224.912C527.155 229.58 533.834 234.063 539.496 239.352L506.972 263.506C498.637 269.781 490.493 276.968 481.19 281.745C481.519 275.493 480.893 266.531 481.757 260.774C482.249 263.08 481.146 269.518 482.622 270.845L482.758 277.922C501.065 265.65 517.769 251.314 536.321 239.317C518.667 226.896 502.134 212.994 484.575 200.49L487.382 199.387Z"/>
	<path fill="#4D5777" d="M414.961 228.563C413.958 254.524 419.641 279.744 437.782 299.364C441.784 303.692 446.165 307.709 450.436 311.772C455.29 310.12 460.588 308.637 465.043 306.084C470.463 302.979 478.455 290.896 485.61 294.627C486.358 295.017 486.423 295.334 486.802 296.055C486.809 298.924 484.117 301.609 482.215 303.496C476.176 309.492 468.098 313.106 462.333 319.309L467.402 320.795L465.869 322.706C464.597 322.007 463.251 321.196 461.848 320.798C459.978 320.269 458.724 321.201 457.196 322.131L456.084 320.255C460.168 317.204 468.327 312.952 471.114 309.058C471.388 308.676 471.242 308.511 471.171 308.069C465.925 306.377 454.013 312.824 448.941 314.779L447.814 312.356C447.516 312.161 447.245 311.956 446.98 311.72C431.938 298.298 419.277 281.257 414.852 261.23C412.974 252.727 412.484 244.178 411.976 235.516L411.756 235.91L411.757 234.072L411.872 234.127C411.174 234.873 411.07 235.18 410.946 236.194L408.962 235.791L410.7 229.063C412.49 229.373 413.31 229.24 414.961 228.563ZM481.018 296.721C477.471 298.442 474.664 300.167 471.986 303.14C472.726 304.405 473.374 306.002 474.758 306.627L475.653 306.313C478.133 304.202 483.477 300.719 484.08 297.407C483.089 296.514 482.292 296.744 481.018 296.721Z"/>
	<path fill="#292E4C" d="M481.757 260.774C480.969 247.668 481.718 234.213 481.626 221.059C481.569 212.886 480.494 204.702 481.172 196.549L481.795 196.114C483.997 196.568 485.646 198.05 487.382 199.387L484.575 200.49L483.222 200.284C481.399 202.863 483.279 262.752 482.622 270.845C481.146 269.518 482.249 263.08 481.757 260.774Z"/>
	<path fill="#717EA1" d="M971.749 376.388C974.561 379.64 971.582 384.112 973.619 386.864C974.14 388.217 974.521 389.453 973.904 390.853C973.501 391.77 972.992 392.261 972.186 392.821C971.973 392.102 971.566 391.508 971.188 390.864C971.323 390.626 971.337 390.611 971.466 390.328C972.811 387.368 972.824 379.41 971.749 376.388Z"/>
	<path fill="#292E4C" d="M759.791 339.896C761.076 338.243 761.273 333.283 761.803 331.021C763.441 335.416 761.684 356.073 761.678 362.116C761.672 366.863 762.283 371.645 762.031 376.385C761.92 378.468 761.721 381.121 760.88 383.043L759.66 383.503C759.952 376.422 761.649 344.724 759.791 339.896Z"/>
	<defs>
		<linearGradient id="gradient_0" gradientUnits="userSpaceOnUse" x1="865.48932" y1="217.41467" x2="910.87689" y2="398.61435">
			<stop offset="0" stop-color="#6B708B"/>
			<stop offset="1" stop-color="#888DA5"/>
		</linearGradient>
	</defs>
	<path fill="url(#gradient_0)" d="M970.236 203.598C972.012 204.28 972.921 204.684 973.801 206.466C974.638 208.16 974.804 210.276 974.842 212.133C975.172 228.377 974.587 244.634 974.591 260.879C974.595 274.268 975.898 381.54 973.993 386.099C973.883 386.361 973.747 386.611 973.619 386.864C971.582 384.112 974.561 379.64 971.749 376.388C971.893 376.082 972.011 375.811 972.088 375.479C973.125 370.987 972.273 346.52 972.275 340.317L972.291 280.89C972.29 270.206 972.591 259.417 972.171 248.745C972.112 247.265 971.937 246.149 971.172 244.865C961.81 243.883 952.324 244.38 942.929 244.49Q924.981 244.673 907.032 244.666C858.601 244.734 810.088 245.338 761.665 244.694C761.289 243.556 761.076 243.477 761.633 242.362C769.273 241.975 777.087 242.284 784.745 242.283L828.873 242.294L971.414 242.26C971.488 242.155 971.571 242.056 971.636 241.946C973.398 238.958 972.816 211.491 971.772 207.66C971.319 205.996 970.866 205.827 969.435 205.012L970.236 203.598Z"/>
	<path fill="#5289D3" d="M801.479 217.743C802.881 217.544 804.236 217.584 805.527 218.229C807.049 218.989 808.253 220.289 808.778 221.92C809.175 223.154 809.09 224.573 808.444 225.71C807.498 227.379 806.161 227.878 804.435 228.343C804.062 228.448 803.74 228.538 803.35 228.547C801.921 228.582 800.132 228.41 799.078 227.356C798.137 226.414 797.953 225.293 797.994 224.014C798.086 221.102 799.475 219.641 801.479 217.743Z"/>
	<path fill="#5289D3" d="M782.22 217.743C783.689 217.632 784.978 217.659 786.293 218.419Q786.569 218.576 786.828 218.761Q787.087 218.946 787.325 219.155Q787.564 219.365 787.78 219.598Q787.996 219.831 788.187 220.085Q788.379 220.339 788.543 220.611Q788.708 220.883 788.844 221.17Q788.98 221.457 789.086 221.757Q789.192 222.056 789.267 222.365Q789.329 222.613 789.365 222.866Q789.401 223.12 789.41 223.375Q789.419 223.631 789.402 223.886Q789.384 224.141 789.34 224.393Q789.296 224.645 789.226 224.891Q789.156 225.137 789.061 225.374Q788.965 225.612 788.845 225.838Q788.726 226.064 788.583 226.276C787.599 227.751 786.348 228.282 784.677 228.644C784.077 228.763 783.44 228.891 782.827 228.868C781.617 228.822 780.335 228.318 779.576 227.353C778.681 226.217 778.496 224.772 778.643 223.369C778.921 220.725 780.211 219.319 782.22 217.743Z"/>
	<path fill="#4D5777" d="M914.765 202.146C921.501 202.163 967.244 201.035 969.988 203.32C970.084 203.399 970.153 203.505 970.236 203.598L969.435 205.012C966.053 203.949 961.457 204.263 957.92 204.222C947.286 204.099 936.635 204.565 925.994 204.577L831.635 204.574L792.237 204.543C782.95 204.495 773.302 203.813 764.112 205.243C761.477 208.06 761.779 211.816 761.897 215.412C762.042 219.851 763.416 235.722 761.041 238.386L759.638 238.884C761.428 234.613 760.888 213.49 759.268 209.017C760.492 208.027 761.12 205.565 762.316 204.286C763.727 202.778 765.67 202.515 767.618 202.356C772.712 201.942 777.95 202.216 783.061 202.223L810.775 202.235Q861.218 202.618 911.66 202.271L911.929 202.861C913.045 203.017 913.496 203.181 914.558 202.751L914.765 202.146Z"/>
	<path fill="#5289D3" d="M823.296 218.239C848.111 217.384 873.206 218.224 898.055 218.208L931.04 218.112C937.418 218.063 943.951 217.695 950.309 218.075C951.748 218.161 953.132 218.555 954.324 219.396C955.452 220.19 956.276 221.389 956.41 222.782C956.52 223.915 956.128 225.044 955.404 225.912C953.983 227.615 952.106 227.714 950.066 227.838C924.773 228.737 899.157 227.875 873.836 227.875Q857.098 227.83 840.361 227.999C835.521 228.059 830.514 228.565 825.701 228.365C824.164 228.301 822.554 227.892 821.197 227.162C819.837 226.43 818.435 225.134 818.054 223.592C817.82 222.645 818.001 221.681 818.546 220.873C819.607 219.3 821.536 218.623 823.296 218.239Z"/>
</svg>
